<svg xmlns="http://www.w3.org/2000/svg" version="1.1" xmlns:xlink="http://www.w3.org/1999/xlink" xmlns:svgjs="http://svgjs.dev/svgjs" viewBox="0 0 10.614965400204367 8.752256487208964"><g transform="matrix(0.8443078024568668,0,0,0.8443078024568668,1.5076626679784249,5.9364951101425945)"><g transform="matrix(1,0,0,1,0,0)" clip-path="url(#SvgjsClipPath17542)"><g clip-path="url(#SvgjsClipPath17540baa5b6c6-f752-412d-9189-e94a5afeae09)"><path d=" M 2.555802173672367 -1.9652262566419587 C 2.7101185552599882 -2.1430956368118275 2.8371741316906975 -2.2599968793278293 2.9282681977637184 -2.3510909454008497 C 2.9292372835730056 -2.351575488305493 2.9297007593948385 -2.352060031210137 2.9297007593948385 -2.352060031210137 L 4.0307718424906795 -3.379101385309541 C 4.273591038965618 -3.6055725255234568 4.287052904881589 -3.9858965715031607 4.060581764667674 -4.228715767978099 C 3.834595167358403 -4.4710504215483935 3.454271121378699 -4.484512287464366 3.21145192490376 -4.25804114725045 L 1.6550579810224906 -2.806919416173732 L 1.6387099247614676 -2.7920039215438295 C 1.5843779181929385 -2.741506124046829 1.5415906730046165 -2.682855365502128 1.5103271221136907 -2.6203493308030867 C 1.5069563888639954 -2.6136078643036957 1.5040701985189435 -2.607372007791759 1.5011840081738919 -2.6006305412923685 C 1.4732911905326616 -2.5390935924026152 1.4559740484623511 -2.473701367358523 1.4497381919504144 -2.407340056505143 C 1.4482845632364831 -2.389074895708355 1.4473365445100064 -2.3707886678287577 1.4473365445100064 -2.35252350703197 L 1.4473365445100064 -2.3520389641273267 C 1.4473365445100064 -2.333773803330539 1.4483056303192938 -2.3154875754509407 1.4497381919504144 -2.2972224146541538 C 1.4559740484623511 -2.2308611038007737 1.472806647628018 -2.1654688787566814 1.5011840081738919 -2.103931929866928 C 1.5040701985189435 -2.097190463367537 1.5069563888639952 -2.0909546068556004 1.5103271221136907 -2.0842131403562094 C 1.535333749409869 -2.0337364099420197 1.5685144048365591 -1.9856402598854275 1.608900002584473 -1.9423684717924616 C 1.623794430131565 -1.9265049584360825 1.6391944676661114 -1.9115894638061803 1.6550579810224906 -1.8976430549855645 L 2.4503403571225193 -1.1557446667275881 C 2.2839736041672367 -1.5024245814587691 2.3795760259617245 -1.7621185112649957 2.555802173672367 -1.965205189559149 Z" fill="#4e888f" transform="matrix(1,0,0,1,0,0)" fill-rule="nonzero"></path></g><g clip-path="url(#SvgjsClipPath17540baa5b6c6-f752-412d-9189-e94a5afeae09)"><path d=" M 3.0071222887237816 -2.2804108825712968 C 2.9667366909758677 -2.2506009603943022 2.9095184940622865 -2.2054120677655726 2.84749700226789 -2.14674024213806 C 2.654691060385308 -1.9664270803621622 2.418149854587927 -1.7535231414782708 2.4623485943245593 -1.3928968179264745 C 2.4800660109682715 -1.2483766298457812 2.5599523889860545 -1.0533586442680862 2.5599523889860545 -1.0533586442680862 L 3.2114729919865708 -0.44607891516982345 C 3.327341947444853 -0.33838398784205204 3.473989910889417 -0.28500000000000014 3.6211224172386247 -0.28500000000000014 C 3.7817167895038044 -0.28500000000000014 3.942311161768983 -0.3489385963301608 4.060602831750485 -0.47588883734681797 C 4.2870739719644 -0.7187080338217573 4.273612106048429 -1.09903207980146 4.03079290957349 -1.3255032200153751 L 3.0071222887237816 -2.280410882571296 Z" fill="#bab9b4" transform="matrix(1,0,0,1,0,0)" fill-rule="nonzero"></path></g><g clip-path="url(#SvgjsClipPath17540baa5b6c6-f752-412d-9189-e94a5afeae09)"><path d=" M 6.445207002164745 -2.962942231469012 C 6.290890620577123 -3.1408116116388807 6.163835044146415 -3.257712854154882 6.072740978073394 -3.348806920227903 C 6.071771892264106 -3.3492914631325466 6.071308416442273 -3.34977600603719 6.071308416442273 -3.34977600603719 L 4.970237333346432 -4.376817360136594 C 4.727418136871494 -4.6032885003505095 4.7139562709555225 -4.983612546330214 4.940427411169438 -5.226431742805152 C 5.166414008478709 -5.468766396375447 5.546738054458412 -5.482228262291418 5.789557250933351 -5.255757122077503 L 7.3459722618974315 -3.8046353910007857 L 7.362320318158455 -3.789719896370883 C 7.416652324726984 -3.739222098873883 7.459439569915306 -3.6805713403291813 7.4907031208062325 -3.618065305630141 C 7.494073854055927 -3.6113238391307494 7.4969600444009785 -3.605087982618813 7.49984623474603 -3.598346516119422 C 7.527739052387261 -3.5368095672296693 7.545056194457571 -3.4714173421855765 7.551292050969508 -3.405056031332197 C 7.55274567968344 -3.386790870535409 7.553693698409916 -3.368504642655812 7.553693698409916 -3.350239481859024 L 7.553693698409916 -3.34975493895438 C 7.553693698409916 -3.331489778157593 7.552724612600629 -3.313203550277995 7.551292050969508 -3.294938389481207 C 7.545056194457571 -3.228577078627828 7.528223595291905 -3.1631848535837355 7.49984623474603 -3.1016479046939818 C 7.4969600444009785 -3.0949064381945908 7.494073854055927 -3.0886705816826545 7.4907031208062325 -3.0819291151832635 C 7.465696493510054 -3.0314523847690737 7.432515838083363 -2.9833562347124816 7.392130240335449 -2.9400844466195153 C 7.377235812788356 -2.9242209332631357 7.361835775253811 -2.9093054386332335 7.3459722618974315 -2.8953590298126186 L 6.550689885797404 -2.153460641554642 C 6.717056638752686 -2.5001405562858223 6.621454216958199 -2.759834486092049 6.445228069247557 -2.962921164386202 Z" fill="#bab9b4" transform="matrix(1,0,0,1,0,0)" fill-rule="nonzero"></path></g><g clip-path="url(#SvgjsClipPath17540baa5b6c6-f752-412d-9189-e94a5afeae09)"><path d=" M 5.99388688711333 -3.27810579031554 C 6.034272484861244 -3.248295868138545 6.091490681774825 -3.2031069755098156 6.153512173569222 -3.1444351498823035 C 6.346318115451803 -2.9641219881064056 6.582859321249185 -2.751218049222514 6.538660581512552 -2.3905917256707183 C 6.520943164868841 -2.2460715375900246 6.441056786851057 -2.05105355201233 6.441056786851057 -2.05105355201233 L 5.789536183850542 -1.4437738229140678 C 5.673667228392258 -1.3360788955862963 5.527019264947695 -1.2826949077442444 5.379886758598486 -1.2826949077442444 C 5.219292386333308 -1.2826949077442444 5.058698014068128 -1.346633504074405 4.940406344086627 -1.4735837450910618 C 4.713935203872712 -1.7164029415660003 4.727397069788683 -2.0967269875457046 4.9702162662636225 -2.32319812775962 L 5.99388688711333 -3.2781057903155406 Z" fill="#4e888f" transform="matrix(1,0,0,1,0,0)" fill-rule="nonzero"></path></g></g><g><path d=" M 0.5586311370849611 0.93024 Q 0.4177271370849612 0.93024 0.31512713708496115 0.8727839999999999 Q 0.21252713708496115 0.8153279999999999 0.15643913708496113 0.7154639999999999 Q 0.10035113708496113 0.6155999999999999 0.10035113708496113 0.4883759999999999 Q 0.10035113708496113 0.3898799999999999 0.13865513708496113 0.30232799999999993 Q 0.17695913708496114 0.21477599999999986 0.24330713708496116 0.14637599999999984 Q 0.3096551370849611 0.07797599999999993 0.39583913708496116 0.03898799999999991 Q 0.48202313708496114 -1.1102230246251565e-16 0.5791511370849611 -1.1102230246251565e-16 Q 0.6489191370849612 -1.1102230246251565e-16 0.6967991370849612 0.0088919999999999 Q 0.7446791370849611 0.01778399999999991 0.7822991370849611 0.03214799999999984 Q 0.8199191370849612 0.04651199999999989 0.8582231370849612 0.06566399999999983 L 0.8664311370849612 0.3091679999999999 L 0.8418071370849611 0.3091679999999999 L 0.7474151370849612 0.1313279999999999 Q 0.7009031370849612 0.09849599999999992 0.6632831370849611 0.08344799999999986 Q 0.6256631370849611 0.0683999999999999 0.5791511370849611 0.0683999999999999 Q 0.48475913708496116 0.0683999999999999 0.4095191370849611 0.11764799999999986 Q 0.33427913708496115 0.16689599999999993 0.29118713708496113 0.2537639999999999 Q 0.24809513708496114 0.34063199999999993 0.24809513708496114 0.4541759999999999 Q 0.24809513708496114 0.5813999999999999 0.28981913708496115 0.672372 Q 0.33154313708496114 0.7633439999999999 0.40267913708496117 0.811224 Q 0.47381513708496115 0.859104 0.5599991370849612 0.859104 Q 0.6311351370849612 0.859104 0.6796991370849612 0.8399519999999999 Q 0.7282631370849612 0.8208 0.7665671370849612 0.794808 L 0.8582231370849612 0.6415919999999999 L 0.8814791370849612 0.6415919999999999 L 0.8650631370849612 0.8618399999999999 Q 0.8048711370849612 0.891936 0.7364711370849611 0.9110879999999999 Q 0.6680711370849611 0.93024 0.5586311370849611 0.93024 M 1.5476744300537115 0.93024 Q 1.4491784300537114 0.93024 1.3650464300537113 0.8953559999999999 Q 1.2809144300537114 0.8604719999999999 1.2186704300537115 0.7982279999999999 Q 1.1564264300537115 0.735984 1.1222264300537113 0.651168 Q 1.0880264300537115 0.566352 1.0880264300537115 0.4651199999999999 Q 1.0880264300537115 0.3638879999999999 1.1222264300537113 0.2790719999999999 Q 1.1564264300537115 0.19425599999999987 1.2186704300537115 0.1320119999999999 Q 1.2809144300537114 0.06976799999999983 1.3650464300537113 0.034883999999999915 Q 1.4491784300537114 -1.1102230246251565e-16 1.5476744300537115 -1.1102230246251565e-16 Q 1.6461704300537114 -1.1102230246251565e-16 1.7303024300537113 0.034883999999999915 Q 1.8144344300537114 0.06976799999999983 1.8766784300537114 0.1320119999999999 Q 1.9389224300537116 0.19425599999999987 1.9738064300537115 0.2790719999999999 Q 2.0086904300537114 0.3638879999999999 2.0086904300537114 0.4651199999999999 Q 2.0086904300537114 0.566352 1.9738064300537115 0.651168 Q 1.9389224300537116 0.735984 1.8766784300537114 0.7982279999999999 Q 1.8144344300537114 0.8604719999999999 1.7303024300537113 0.8953559999999999 Q 1.6461704300537114 0.93024 1.5476744300537115 0.93024 M 1.5750344300537114 0.8618399999999999 Q 1.6584824300537115 0.8618399999999999 1.7214104300537114 0.8180639999999999 Q 1.7843384300537113 0.7742879999999999 1.8199064300537113 0.6949439999999999 Q 1.8554744300537114 0.6155999999999999 1.8554744300537114 0.507528 Q 1.8554744300537114 0.37483199999999994 1.8116984300537116 0.2756519999999999 Q 1.7679224300537113 0.17647199999999985 1.6926824300537113 0.12175199999999986 Q 1.6174424300537114 0.06703199999999987 1.5257864300537114 0.06703199999999987 Q 1.4423384300537114 0.06703199999999987 1.3780424300537113 0.11012399999999989 Q 1.3137464300537114 0.1532159999999999 1.2774944300537114 0.23255999999999988 Q 1.2412424300537115 0.31190399999999985 1.2412424300537115 0.4199759999999999 Q 1.2412424300537115 0.5526719999999998 1.2857024300537114 0.6525359999999999 Q 1.3301624300537114 0.7524 1.4060864300537115 0.80712 Q 1.4820104300537114 0.8618399999999999 1.5750344300537114 0.8618399999999999 M 2.1796610394287117 0.9165599999999999 L 2.1796610394287117 0.8946719999999999 L 2.2904690394287117 0.8399519999999999 L 2.2904690394287117 0.09028799999999992 L 2.1796610394287117 0.03556799999999993 L 2.1796610394287117 0.013679999999999914 L 2.595533039428712 0.013679999999999914 Q 2.748749039428712 0.013679999999999914 2.856821039428712 0.06703199999999987 Q 2.964893039428712 0.12038399999999994 3.021665039428712 0.21340799999999993 Q 3.078437039428712 0.3064319999999999 3.078437039428712 0.4240799999999999 Q 3.078437039428712 0.5307839999999999 3.041501039428712 0.6210719999999998 Q 3.004565039428712 0.7113599999999999 2.9382170394287117 0.7770239999999999 Q 2.871869039428712 0.8426879999999999 2.7822650394287116 0.879624 Q 2.692661039428712 0.9165599999999999 2.585957039428712 0.9165599999999999 L 2.1796610394287117 0.9165599999999999 M 2.5585970394287116 0.08891999999999989 L 2.4341090394287117 0.08891999999999989 L 2.4341090394287117 0.84132 L 2.579117039428712 0.84132 Q 2.6885570394287117 0.84132 2.7665330394287118 0.7954919999999999 Q 2.844509039428712 0.7496639999999999 2.886917039428712 0.6655319999999999 Q 2.929325039428712 0.5813999999999999 2.929325039428712 0.4664879999999999 Q 2.929325039428712 0.3529439999999999 2.8862330394287117 0.2674439999999999 Q 2.843141039428712 0.18194399999999988 2.760377039428712 0.13543199999999989 Q 2.677613039428712 0.08891999999999989 2.5585970394287116 0.08891999999999989 M 3.2480770550537117 0.9165599999999999 L 3.2480770550537117 0.8946719999999999 L 3.3588850550537117 0.8399519999999999 L 3.3588850550537117 0.09028799999999992 L 3.2480770550537117 0.03556799999999993 L 3.2480770550537117 0.013679999999999914 L 3.934813055053712 0.013679999999999914 L 3.934813055053712 0.24897599999999986 L 3.912925055053712 0.24897599999999986 L 3.824005055053712 0.08891999999999989 L 3.5025250550537117 0.08891999999999989 L 3.5025250550537117 0.41313599999999995 L 3.729613055053712 0.41313599999999995 L 3.7993810550537117 0.29822399999999993 L 3.821269055053712 0.29822399999999993 L 3.821269055053712 0.600552 L 3.7993810550537117 0.600552 L 3.729613055053712 0.4883759999999999 L 3.5025250550537117 0.4883759999999999 L 3.5025250550537117 0.84132 L 3.8609410550537118 0.84132 L 3.951229055053712 0.660744 L 3.973117055053712 0.660744 L 3.973117055053712 0.9165599999999999 L 3.2480770550537117 0.9165599999999999 M 4.431392379272462 0.93024 Q 4.345208379272462 0.93024 4.2843323792724615 0.913824 Q 4.223456379272462 0.897408 4.159160379272462 0.8659439999999999 L 4.1454803792724615 0.6402239999999999 L 4.167368379272462 0.6402239999999999 L 4.2398723792724615 0.7893359999999999 Q 4.287752379272462 0.829008 4.3342643792724616 0.8467919999999999 Q 4.380776379272461 0.8645759999999999 4.427288379272462 0.8645759999999999 Q 4.506632379272462 0.8645759999999999 4.552460379272462 0.8235359999999999 Q 4.598288379272462 0.7824959999999999 4.598288379272462 0.7113599999999999 Q 4.598288379272462 0.6552719999999999 4.572980379272462 0.621756 Q 4.547672379272462 0.5882399999999999 4.497740379272462 0.561564 Q 4.447808379272462 0.5348879999999999 4.375304379272462 0.49931999999999993 Q 4.278176379272462 0.4528079999999999 4.226192379272462 0.40150799999999987 Q 4.174208379272462 0.35020799999999985 4.174208379272462 0.25718399999999986 Q 4.174208379272462 0.2079359999999999 4.198148379272462 0.16210799999999992 Q 4.222088379272462 0.11627999999999994 4.263128379272462 0.08002799999999988 Q 4.304168379272462 0.043775999999999926 4.354784379272462 0.021887999999999908 Q 4.405400379272462 -1.1102230246251565e-16 4.460120379272462 -1.1102230246251565e-16 Q 4.524416379272462 -1.1102230246251565e-16 4.580504379272462 0.01504799999999984 Q 4.636592379272462 0.0300959999999999 4.691312379272462 0.058823999999999876 L 4.704992379272462 0.27770399999999984 L 4.683104379272462 0.27770399999999984 L 4.6119683792724615 0.1313279999999999 Q 4.568192379272462 0.09712799999999988 4.532624379272462 0.08207999999999993 Q 4.497056379272462 0.06703199999999987 4.4519123792724615 0.06703199999999987 Q 4.393088379272462 0.06703199999999987 4.354100379272462 0.10670399999999991 Q 4.3151123792724615 0.14637599999999984 4.3151123792724615 0.20656799999999986 Q 4.3151123792724615 0.27359999999999984 4.356836379272462 0.31190399999999985 Q 4.398560379272462 0.35020799999999985 4.491584379272462 0.3939839999999999 Q 4.573664379272462 0.43365599999999993 4.627700379272462 0.4699079999999999 Q 4.681736379272462 0.5061599999999999 4.707728379272462 0.5513039999999999 Q 4.733720379272462 0.5964479999999999 4.733720379272462 0.6662159999999999 Q 4.733720379272462 0.7305119999999999 4.706360379272462 0.7797599999999999 Q 4.679000379272462 0.829008 4.633856379272462 0.862524 Q 4.588712379272462 0.89604 4.536044379272462 0.91314 Q 4.483376379272462 0.93024 4.431392379272462 0.93024 M 4.8896937542724626 0.9165599999999999 L 4.8896937542724626 0.8946719999999999 L 5.000501754272462 0.8399519999999999 L 5.000501754272462 0.09028799999999992 L 4.8896937542724626 0.03556799999999993 L 4.8896937542724626 0.013679999999999914 L 5.576429754272462 0.013679999999999914 L 5.576429754272462 0.24897599999999986 L 5.554541754272462 0.24897599999999986 L 5.465621754272462 0.08891999999999989 L 5.144141754272463 0.08891999999999989 L 5.144141754272463 0.41313599999999995 L 5.371229754272462 0.41313599999999995 L 5.440997754272463 0.29822399999999993 L 5.462885754272462 0.29822399999999993 L 5.462885754272462 0.600552 L 5.440997754272463 0.600552 L 5.371229754272462 0.4883759999999999 L 5.144141754272463 0.4883759999999999 L 5.144141754272463 0.84132 L 5.502557754272463 0.84132 L 5.592845754272462 0.660744 L 5.6147337542724625 0.660744 L 5.6147337542724625 0.9165599999999999 L 4.8896937542724626 0.9165599999999999 M 5.7857290784912125 0.9165599999999999 L 5.7857290784912125 0.8946719999999999 L 5.896537078491212 0.8399519999999999 L 5.896537078491212 0.09302399999999988 L 5.787097078491212 0.03556799999999993 L 5.787097078491212 0.013679999999999914 L 6.001873078491212 0.013679999999999914 L 6.525817078491213 0.6580079999999999 L 6.525817078491213 0.08891999999999989 L 6.384913078491213 0.03556799999999993 L 6.384913078491213 0.013679999999999914 L 6.731017078491212 0.013679999999999914 L 6.731017078491212 0.03556799999999993 L 6.621577078491212 0.08891999999999989 L 6.621577078491212 0.9233999999999999 L 6.5627530784912125 0.9233999999999999 L 5.992297078491212 0.22298399999999985 L 5.992297078491212 0.84132 L 6.133201078491212 0.8946719999999999 L 6.133201078491212 0.9165599999999999 L 5.7857290784912125 0.9165599999999999 M 7.171483687866213 0.93024 Q 7.085299687866213 0.93024 7.0244236878662125 0.913824 Q 6.963547687866213 0.897408 6.899251687866213 0.8659439999999999 L 6.8855716878662125 0.6402239999999999 L 6.907459687866213 0.6402239999999999 L 6.979963687866213 0.7893359999999999 Q 7.027843687866213 0.829008 7.074355687866213 0.8467919999999999 Q 7.1208676878662125 0.8645759999999999 7.167379687866213 0.8645759999999999 Q 7.246723687866213 0.8645759999999999 7.292551687866213 0.8235359999999999 Q 7.338379687866213 0.7824959999999999 7.338379687866213 0.7113599999999999 Q 7.338379687866213 0.6552719999999999 7.313071687866213 0.621756 Q 7.287763687866213 0.5882399999999999 7.237831687866213 0.561564 Q 7.187899687866213 0.5348879999999999 7.115395687866213 0.49931999999999993 Q 7.018267687866213 0.4528079999999999 6.966283687866213 0.40150799999999987 Q 6.914299687866213 0.35020799999999985 6.914299687866213 0.25718399999999986 Q 6.914299687866213 0.2079359999999999 6.938239687866213 0.16210799999999992 Q 6.962179687866213 0.11627999999999994 7.003219687866213 0.08002799999999988 Q 7.044259687866213 0.043775999999999926 7.094875687866213 0.021887999999999908 Q 7.145491687866213 -1.1102230246251565e-16 7.200211687866213 -1.1102230246251565e-16 Q 7.264507687866213 -1.1102230246251565e-16 7.320595687866213 0.01504799999999984 Q 7.376683687866213 0.0300959999999999 7.431403687866213 0.058823999999999876 L 7.445083687866213 0.27770399999999984 L 7.423195687866213 0.27770399999999984 L 7.352059687866213 0.1313279999999999 Q 7.308283687866213 0.09712799999999988 7.272715687866213 0.08207999999999993 Q 7.237147687866213 0.06703199999999987 7.192003687866213 0.06703199999999987 Q 7.133179687866213 0.06703199999999987 7.094191687866213 0.10670399999999991 Q 7.0552036878662125 0.14637599999999984 7.0552036878662125 0.20656799999999986 Q 7.0552036878662125 0.27359999999999984 7.096927687866213 0.31190399999999985 Q 7.138651687866213 0.35020799999999985 7.231675687866213 0.3939839999999999 Q 7.313755687866213 0.43365599999999993 7.367791687866213 0.4699079999999999 Q 7.421827687866213 0.5061599999999999 7.447819687866213 0.5513039999999999 Q 7.473811687866213 0.5964479999999999 7.473811687866213 0.6662159999999999 Q 7.473811687866213 0.7305119999999999 7.4464516878662135 0.7797599999999999 Q 7.419091687866213 0.829008 7.373947687866213 0.862524 Q 7.328803687866213 0.89604 7.276135687866213 0.91314 Q 7.223467687866213 0.93024 7.171483687866213 0.93024 M 7.629785062866214 0.9165599999999999 L 7.629785062866214 0.8946719999999999 L 7.740593062866213 0.8399519999999999 L 7.740593062866213 0.09028799999999992 L 7.629785062866214 0.03556799999999993 L 7.629785062866214 0.013679999999999914 L 8.316521062866213 0.013679999999999914 L 8.316521062866213 0.24897599999999986 L 8.294633062866213 0.24897599999999986 L 8.205713062866213 0.08891999999999989 L 7.884233062866214 0.08891999999999989 L 7.884233062866214 0.41313599999999995 L 8.111321062866214 0.41313599999999995 L 8.181089062866214 0.29822399999999993 L 8.202977062866214 0.29822399999999993 L 8.202977062866214 0.600552 L 8.181089062866214 0.600552 L 8.111321062866214 0.4883759999999999 L 7.884233062866214 0.4883759999999999 L 7.884233062866214 0.84132 L 8.242649062866214 0.84132 L 8.332937062866213 0.660744 L 8.354825062866214 0.660744 L 8.354825062866214 0.9165599999999999 L 7.629785062866214 0.9165599999999999 M 8.536764387084963 0.9165599999999999 L 8.536764387084963 0.8946719999999999 L 8.648940387084963 0.8399519999999999 L 8.648940387084963 0.09028799999999992 L 8.536764387084963 0.03556799999999993 L 8.536764387084963 0.013679999999999914 L 8.902020387084962 0.013679999999999914 L 8.902020387084962 0.03556799999999993 L 8.791212387084963 0.09028799999999992 L 8.791212387084963 0.8399519999999999 L 8.902020387084962 0.8946719999999999 L 8.902020387084962 0.9165599999999999 L 8.536764387084963 0.9165599999999999" fill="#ffffff" fill-rule="nonzero"></path></g><g><path d=" M 0.22139999999999999 1.6131262499999997 Q 0.16494299999999998 1.6131262499999997 0.12398399999999998 1.5898792499999996 Q 0.08302499999999999 1.5666322499999996 0.060884999999999995 1.5265034999999996 Q 0.038744999999999995 1.4863747499999995 0.038744999999999995 1.4348992499999995 Q 0.038744999999999995 1.3956007499999996 0.05396624999999999 1.3598999999999997 Q 0.0691875 1.3241992499999995 0.09547874999999999 1.2965242499999996 Q 0.12176999999999999 1.2688492499999997 0.15636375 1.2527977499999996 Q 0.19095749999999997 1.2367462499999995 0.22970249999999998 1.2367462499999995 Q 0.2573775 1.2367462499999995 0.27675 1.2403439999999997 Q 0.29612249999999996 1.2439417499999996 0.31134375 1.2497534999999997 Q 0.326565 1.2555652499999996 0.34206299999999995 1.2633142499999996 L 0.3448305 1.3601767499999995 L 0.3348675 1.3601767499999995 L 0.301104 1.2926497499999996 Q 0.28007099999999996 1.2777052499999997 0.26429624999999995 1.2710632499999996 Q 0.24852149999999998 1.2644212499999996 0.22859549999999998 1.2644212499999996 Q 0.18874349999999998 1.2644212499999996 0.15747075 1.2843472499999997 Q 0.12619799999999998 1.3042732499999996 0.10820924999999999 1.3388669999999996 Q 0.0902205 1.3734607499999996 0.0902205 1.4182942499999995 Q 0.0902205 1.4708767499999995 0.10765575 1.5082379999999995 Q 0.12509099999999998 1.5455992499999995 0.15470325 1.5652484999999996 Q 0.1843155 1.5848977499999997 0.220293 1.5848977499999997 Q 0.2507355 1.5848977499999997 0.27149175 1.5763184999999995 Q 0.29224799999999995 1.5677392499999996 0.30829949999999995 1.5572227499999995 L 0.34150949999999997 1.4979982499999995 L 0.350919 1.4979982499999995 L 0.3448305 1.5860047499999996 Q 0.328779 1.5943072499999995 0.31189724999999996 1.6003957499999997 Q 0.2950155 1.6064842499999996 0.273429 1.6098052499999995 Q 0.25184249999999997 1.6131262499999997 0.22139999999999999 1.6131262499999997 M 0.6249087971191406 1.6131262499999997 Q 0.5850567971191406 1.6131262499999997 0.5515700471191406 1.5990119999999997 Q 0.5180832971191406 1.5848977499999997 0.4931757971191406 1.5597134999999995 Q 0.4682682971191406 1.5345292499999996 0.4544307971191406 1.5002122499999997 Q 0.4405932971191406 1.4658952499999995 0.4405932971191406 1.4249362499999996 Q 0.4405932971191406 1.3839772499999996 0.4544307971191406 1.3496602499999997 Q 0.4682682971191406 1.3153432499999997 0.4931757971191406 1.2901589999999996 Q 0.5180832971191406 1.2649747499999995 0.5515700471191406 1.2508604999999995 Q 0.5850567971191406 1.2367462499999995 0.6249087971191406 1.2367462499999995 Q 0.6647607971191406 1.2367462499999995 0.6985242971191405 1.2508604999999995 Q 0.7322877971191406 1.2649747499999995 0.7571952971191406 1.2901589999999996 Q 0.7821027971191405 1.3153432499999997 0.7959402971191405 1.3496602499999997 Q 0.8097777971191406 1.3839772499999996 0.8097777971191406 1.4249362499999996 Q 0.8097777971191406 1.4658952499999995 0.7959402971191405 1.5002122499999997 Q 0.7821027971191405 1.5345292499999996 0.7571952971191406 1.5597134999999995 Q 0.7322877971191406 1.5848977499999997 0.6985242971191405 1.5990119999999997 Q 0.6647607971191406 1.6131262499999997 0.6249087971191406 1.6131262499999997 M 0.6365322971191406 1.5854512499999995 Q 0.6719562971191406 1.5854512499999995 0.6988010471191406 1.5677392499999996 Q 0.7256457971191406 1.5500272499999996 0.7408670471191405 1.5179242499999996 Q 0.7560882971191406 1.4858212499999996 0.7560882971191406 1.4420947499999996 Q 0.7560882971191406 1.3884052499999995 0.7372692971191406 1.3482764999999997 Q 0.7184502971191407 1.3081477499999996 0.6866240471191406 1.2860077499999996 Q 0.6547977971191405 1.2638677499999997 0.6154992971191406 1.2638677499999997 Q 0.5800752971191406 1.2638677499999997 0.5526770471191406 1.2813029999999996 Q 0.5252787971191406 1.2987382499999995 0.5097807971191406 1.3308412499999995 Q 0.4942827971191406 1.3629442499999995 0.4942827971191406 1.4066707499999995 Q 0.4942827971191406 1.4603602499999995 0.5133785471191405 1.5007657499999996 Q 0.5324742971191406 1.5411712499999997 0.5645772971191406 1.5633112499999995 Q 0.5966802971191406 1.5854512499999995 0.6365322971191406 1.5854512499999995 M 0.8845040808105469 1.6075912499999996 L 0.8845040808105469 1.5987352499999996 L 0.9287840808105469 1.5765952499999996 L 0.9287840808105469 1.2732772499999996 L 0.8845040808105469 1.2511372499999995 L 0.8845040808105469 1.2422812499999996 L 1.046679580810547 1.2422812499999996 Q 1.1075645808105468 1.2422812499999996 1.150737580810547 1.2638677499999997 Q 1.1939105808105468 1.2854542499999997 1.216327330810547 1.3230922499999995 Q 1.2387440808105468 1.3607302499999996 1.2387440808105468 1.4083312499999996 Q 1.2387440808105468 1.4515042499999997 1.224076330810547 1.4880352499999996 Q 1.2094085808105468 1.5245662499999997 1.1828405808105469 1.5511342499999996 Q 1.1562725808105467 1.5777022499999995 1.1205718308105468 1.5926467499999997 Q 1.0848710808105468 1.6075912499999996 1.042805080810547 1.6075912499999996 L 0.8845040808105469 1.6075912499999996 M 1.033949080810547 1.2727237499999995 L 0.9785990808105469 1.2727237499999995 L 0.9785990808105469 1.5771487499999997 L 1.0422515808105468 1.5771487499999997 Q 1.086531580810547 1.5771487499999997 1.1189113308105467 1.5586064999999996 Q 1.1512910808105468 1.5400642499999997 1.1687263308105469 1.5060239999999996 Q 1.1861615808105468 1.4719837499999997 1.1861615808105468 1.4254897499999997 Q 1.1861615808105468 1.3795492499999995 1.1684495808105468 1.3449554999999995 Q 1.150737580810547 1.3103617499999995 1.1166973308105468 1.2915427499999996 Q 1.082657080810547 1.2727237499999995 1.033949080810547 1.2727237499999995 M 1.3134800939941407 1.6075912499999996 L 1.3134800939941407 1.5987352499999996 L 1.3577600939941408 1.5765952499999996 L 1.3577600939941408 1.2732772499999996 L 1.3134800939941407 1.2511372499999995 L 1.3134800939941407 1.2422812499999996 L 1.5841415939941408 1.2422812499999996 L 1.5841415939941408 1.3374832499999996 L 1.5752855939941406 1.3374832499999996 L 1.5409685939941407 1.2727237499999995 L 1.4075750939941407 1.2727237499999995 L 1.4075750939941407 1.4039032499999995 L 1.5016700939941408 1.4039032499999995 L 1.5293450939941406 1.3579627499999996 L 1.5382010939941406 1.3579627499999996 L 1.5382010939941406 1.4791792499999996 L 1.5293450939941406 1.4791792499999996 L 1.5016700939941408 1.4343457499999996 L 1.4075750939941407 1.4343457499999996 L 1.4075750939941407 1.5771487499999997 L 1.5564665939941407 1.5771487499999997 L 1.5907835939941406 1.5068542499999995 L 1.5996395939941406 1.5068542499999995 L 1.5996395939941406 1.6075912499999996 L 1.3134800939941407 1.6075912499999996 M 1.9228711618652343 1.6131262499999997 Q 1.8885541618652344 1.6131262499999997 1.8647536618652345 1.6067609999999997 Q 1.8409531618652344 1.6003957499999997 1.8154921618652344 1.5876652499999997 L 1.8099571618652344 1.4968912499999996 L 1.8188131618652343 1.4968912499999996 L 1.8459346618652344 1.5555622499999995 Q 1.8658606618652345 1.5721672499999997 1.8846796618652344 1.5796394999999996 Q 1.9034986618652343 1.5871117499999996 1.9228711618652343 1.5871117499999996 Q 1.9555276618652344 1.5871117499999996 1.9740699118652345 1.5699532499999995 Q 1.9926121618652344 1.5527947499999997 1.9926121618652344 1.5234592499999995 Q 1.9926121618652344 1.4991052499999995 1.9818189118652345 1.4852677499999996 Q 1.9710256618652344 1.4714302499999996 1.9508229118652345 1.4606369999999995 Q 1.9306201618652343 1.4498437499999997 1.9029451618652344 1.4360062499999997 Q 1.8769306618652344 1.4227222499999996 1.8586651618652343 1.4099917499999997 Q 1.8403996618652343 1.3972612499999997 1.8309901618652344 1.3803794999999996 Q 1.8215806618652344 1.3634977499999996 1.8215806618652344 1.3380367499999997 Q 1.8215806618652344 1.3192177499999995 1.8307134118652344 1.3012289999999995 Q 1.8398461618652344 1.2832402499999995 1.8556209118652345 1.2685724999999997 Q 1.8713956618652343 1.2539047499999996 1.8910449118652344 1.2453254999999996 Q 1.9106941618652344 1.2367462499999995 1.9317271618652343 1.2367462499999995 Q 1.9571881618652345 1.2367462499999995 1.9787746618652344 1.2428347499999997 Q 2.0003611618652344 1.2489232499999996 2.0230546618652343 1.2599932499999995 L 2.0285896618652344 1.3485532499999997 L 2.019733661865234 1.3485532499999997 L 1.9942726618652344 1.2904357499999997 Q 1.9749001618652344 1.2760447499999996 1.9605091618652344 1.2696794999999996 Q 1.9461181618652343 1.2633142499999996 1.9272991618652344 1.2633142499999996 Q 1.9029451618652344 1.2633142499999996 1.8871704118652344 1.2799192499999996 Q 1.8713956618652343 1.2965242499999996 1.8713956618652343 1.3208782499999996 Q 1.8713956618652343 1.3491067499999996 1.8885541618652344 1.3648814999999996 Q 1.9057126618652345 1.3806562499999997 1.9422436618652343 1.3983682499999996 Q 1.9760071618652344 1.4149732499999996 1.9975936618652343 1.4290874999999996 Q 2.0191801618652345 1.4432017499999996 2.0296966618652346 1.4614672499999997 Q 2.0402131618652346 1.4797327499999997 2.0402131618652346 1.5079612499999997 Q 2.0402131618652346 1.5339757499999995 2.0291431618652345 1.5536249999999996 Q 2.0180731618652343 1.5732742499999997 2.000637911865234 1.5865582499999995 Q 1.9832026618652343 1.5998422499999996 1.9624464118652343 1.6064842499999996 Q 1.9416901618652345 1.6131262499999997 1.9228711618652343 1.6131262499999997 M 2.1038689050292967 1.6075912499999996 L 2.1038689050292967 1.5987352499999996 L 2.1475954050292967 1.5765952499999996 L 2.159218905029297 1.2738307499999997 L 2.1116179050292967 1.2511372499999995 L 2.1116179050292967 1.2422812499999996 L 2.2140154050292966 1.2422812499999996 L 2.3418739050292965 1.5367432499999996 L 2.4691789050292967 1.2422812499999996 L 2.5665949050292967 1.2422812499999996 L 2.5665949050292967 1.2511372499999995 L 2.5201009050292966 1.2732772499999996 L 2.5295104050292965 1.5765952499999996 L 2.5682554050292965 1.5987352499999996 L 2.5682554050292965 1.6075912499999996 L 2.4409504050292967 1.6075912499999996 L 2.4409504050292967 1.5987352499999996 L 2.4819094050292967 1.5771487499999997 L 2.4763744050292966 1.3042732499999996 L 2.344087905029297 1.6103587499999996 L 2.3191804050292966 1.6103587499999996 L 2.1891079050292968 1.3081477499999996 L 2.181912405029297 1.5771487499999997 L 2.2267459050292966 1.5987352499999996 L 2.2267459050292966 1.6075912499999996 L 2.1038689050292967 1.6075912499999996 M 2.6197222565917966 1.6075912499999996 L 2.6197222565917966 1.5987352499999996 L 2.6551462565917965 1.5804697499999996 L 2.7968422565917965 1.2395137499999995 L 2.8217497565917964 1.2395137499999995 L 2.9612317565917965 1.5788092499999995 L 2.9983162565917967 1.5987352499999996 L 2.9983162565917967 1.6075912499999996 L 2.8610482565917965 1.6075912499999996 L 2.8610482565917965 1.5987352499999996 L 2.9097562565917965 1.5799162499999997 L 2.8682437565917964 1.4775187499999995 L 2.7337432565917967 1.4775187499999995 L 2.6927842565917963 1.5799162499999997 L 2.7392782565917964 1.5987352499999996 L 2.7392782565917964 1.6075912499999996 L 2.6197222565917966 1.6075912499999996 M 2.7464737565917967 1.4470762499999996 L 2.8560667565917965 1.4470762499999996 L 2.8012702565917964 1.3109152499999996 L 2.7464737565917967 1.4470762499999996 M 3.0525592565917967 1.6075912499999996 L 3.0525592565917967 1.5987352499999996 L 3.096839256591797 1.5765952499999996 L 3.096839256591797 1.2732772499999996 L 3.0525592565917967 1.2511372499999995 L 3.0525592565917967 1.2422812499999996 L 3.1953622565917965 1.2422812499999996 Q 3.253479756591797 1.2422812499999996 3.2869665065917966 1.2663584999999995 Q 3.320453256591797 1.2904357499999997 3.320453256591797 1.3325017499999996 Q 3.320453256591797 1.3634977499999996 3.2994202565917967 1.3881284999999997 Q 3.2783872565917966 1.4127592499999997 3.243516756591797 1.4254897499999997 L 3.348681756591797 1.5788092499999995 L 3.385212756591797 1.5987352499999996 L 3.385212756591797 1.6075912499999996 L 3.305508756591797 1.6075912499999996 L 3.1981297565917965 1.4398807499999995 L 3.1466542565917965 1.4398807499999995 L 3.1466542565917965 1.5760417499999997 L 3.1881667565917966 1.5987352499999996 L 3.1881667565917966 1.6075912499999996 L 3.0525592565917967 1.6075912499999996 M 3.1826317565917965 1.2727237499999995 L 3.1466542565917965 1.2727237499999995 L 3.1466542565917965 1.4094382499999996 L 3.1859527565917967 1.4094382499999996 Q 3.220823256591797 1.4094382499999996 3.2437935065917967 1.3897889999999995 Q 3.266763756591797 1.3701397499999997 3.266763756591797 1.3396972499999995 Q 3.266763756591797 1.3087012499999995 3.2440702565917965 1.2907124999999997 Q 3.2213767565917966 1.2727237499999995 3.1826317565917965 1.2727237499999995 M 3.4831827971191407 1.6075912499999996 L 3.4831827971191407 1.5987352499999996 L 3.5385327971191405 1.5765952499999996 L 3.5385327971191405 1.2727237499999995 L 3.4483122971191404 1.2727237499999995 L 3.4106742971191406 1.3540882499999995 L 3.4018182971191404 1.3540882499999995 L 3.4018182971191404 1.2422812499999996 L 3.7250622971191403 1.2422812499999996 L 3.7250622971191403 1.3540882499999995 L 3.7162062971191405 1.3540882499999995 L 3.6785682971191407 1.2727237499999995 L 3.5883477971191406 1.2727237499999995 L 3.5883477971191406 1.5765952499999996 L 3.6436977971191404 1.5987352499999996 L 3.6436977971191404 1.6075912499999996 L 3.4831827971191407 1.6075912499999996 M 3.7859535131835935 1.6075912499999996 L 3.7859535131835935 1.5987352499999996 L 3.8302335131835936 1.5765952499999996 L 3.8302335131835936 1.2732772499999996 L 3.7859535131835935 1.2511372499999995 L 3.7859535131835935 1.2422812499999996 L 4.056615013183594 1.2422812499999996 L 4.056615013183594 1.3374832499999996 L 4.047759013183594 1.3374832499999996 L 4.013442013183593 1.2727237499999995 L 3.8800485131835933 1.2727237499999995 L 3.8800485131835933 1.4039032499999995 L 3.9741435131835936 1.4039032499999995 L 4.0018185131835935 1.3579627499999996 L 4.010674513183593 1.3579627499999996 L 4.010674513183593 1.4791792499999996 L 4.0018185131835935 1.4791792499999996 L 3.9741435131835936 1.4343457499999996 L 3.8800485131835933 1.4343457499999996 L 3.8800485131835933 1.5771487499999997 L 4.028940013183593 1.5771487499999997 L 4.063257013183594 1.5068542499999995 L 4.072113013183594 1.5068542499999995 L 4.072113013183594 1.6075912499999996 L 3.7859535131835935 1.6075912499999996 M 4.146823081054688 1.6075912499999996 L 4.146823081054688 1.5987352499999996 L 4.191103081054687 1.5765952499999996 L 4.191103081054687 1.2732772499999996 L 4.146823081054688 1.2511372499999995 L 4.146823081054688 1.2422812499999996 L 4.289626081054688 1.2422812499999996 Q 4.347743581054687 1.2422812499999996 4.381230331054687 1.2663584999999995 Q 4.414717081054687 1.2904357499999997 4.414717081054687 1.3325017499999996 Q 4.414717081054687 1.3634977499999996 4.393684081054687 1.3881284999999997 Q 4.372651081054688 1.4127592499999997 4.3377805810546874 1.4254897499999997 L 4.442945581054687 1.5788092499999995 L 4.479476581054687 1.5987352499999996 L 4.479476581054687 1.6075912499999996 L 4.3997725810546875 1.6075912499999996 L 4.292393581054688 1.4398807499999995 L 4.240918081054687 1.4398807499999995 L 4.240918081054687 1.5760417499999997 L 4.282430581054688 1.5987352499999996 L 4.282430581054688 1.6075912499999996 L 4.146823081054688 1.6075912499999996 M 4.276895581054688 1.2727237499999995 L 4.240918081054687 1.2727237499999995 L 4.240918081054687 1.4094382499999996 L 4.280216581054687 1.4094382499999996 Q 4.3150870810546875 1.4094382499999996 4.338057331054688 1.3897889999999995 Q 4.361027581054687 1.3701397499999997 4.361027581054687 1.3396972499999995 Q 4.361027581054687 1.3087012499999995 4.338334081054687 1.2907124999999997 Q 4.315640581054687 1.2727237499999995 4.276895581054688 1.2727237499999995 M 4.510478526855469 1.7210587499999996 L 4.510478526855469 1.7094352499999996 Q 4.533725526855468 1.6972582499999995 4.544242026855469 1.6817602499999995 Q 4.554758526855468 1.6662622499999995 4.554758526855468 1.6491037499999996 Q 4.554758526855468 1.6336057499999996 4.547839776855469 1.6233659999999996 Q 4.540921026855469 1.6131262499999997 4.527083526855469 1.6059307499999995 L 4.508264526855468 1.5959677499999996 L 4.506604026855468 1.5904327499999995 L 4.522655526855469 1.5627577499999996 Q 4.526530026855468 1.5566692499999997 4.529297526855468 1.5536249999999996 Q 4.532065026855468 1.5505807499999995 4.536493026855468 1.5505807499999995 Q 4.540921026855469 1.5505807499999995 4.550330526855468 1.5555622499999995 Q 4.567489026855468 1.5655252499999996 4.577175276855469 1.5832372499999996 Q 4.586861526855468 1.6009492499999995 4.586861526855468 1.6214287499999995 Q 4.586861526855468 1.6507642499999995 4.569149526855469 1.6762252499999997 Q 4.5514375268554685 1.7016862499999996 4.510478526855469 1.7210587499999996 M 4.789442526855469 1.6075912499999996 L 4.789442526855469 1.5987352499999996 L 4.833722526855468 1.5765952499999996 L 4.833722526855468 1.2732772499999996 L 4.789442526855469 1.2511372499999995 L 4.789442526855469 1.2422812499999996 L 4.951618026855468 1.2422812499999996 Q 5.012503026855469 1.2422812499999996 5.055676026855468 1.2638677499999997 Q 5.0988490268554685 1.2854542499999997 5.121265776855468 1.3230922499999995 Q 5.143682526855469 1.3607302499999996 5.143682526855469 1.4083312499999996 Q 5.143682526855469 1.4515042499999997 5.129014776855469 1.4880352499999996 Q 5.1143470268554685 1.5245662499999997 5.087779026855468 1.5511342499999996 Q 5.061211026855468 1.5777022499999995 5.025510276855468 1.5926467499999997 Q 4.989809526855469 1.6075912499999996 4.947743526855469 1.6075912499999996 L 4.789442526855469 1.6075912499999996 M 4.938887526855468 1.2727237499999995 L 4.883537526855468 1.2727237499999995 L 4.883537526855468 1.5771487499999997 L 4.947190026855468 1.5771487499999997 Q 4.991470026855469 1.5771487499999997 5.023849776855468 1.5586064999999996 Q 5.056229526855469 1.5400642499999997 5.073664776855468 1.5060239999999996 Q 5.091100026855468 1.4719837499999997 5.091100026855468 1.4254897499999997 Q 5.091100026855468 1.3795492499999995 5.0733880268554685 1.3449554999999995 Q 5.055676026855468 1.3103617499999995 5.021635776855469 1.2915427499999996 Q 4.987595526855468 1.2727237499999995 4.938887526855468 1.2727237499999995 M 5.218418540039062 1.6075912499999996 L 5.218418540039062 1.5987352499999996 L 5.262698540039062 1.5765952499999996 L 5.262698540039062 1.2732772499999996 L 5.218418540039062 1.2511372499999995 L 5.218418540039062 1.2422812499999996 L 5.489080040039061 1.2422812499999996 L 5.489080040039061 1.3374832499999996 L 5.480224040039062 1.3374832499999996 L 5.445907040039062 1.2727237499999995 L 5.3125135400390615 1.2727237499999995 L 5.3125135400390615 1.4039032499999995 L 5.406608540039062 1.4039032499999995 L 5.434283540039061 1.3579627499999996 L 5.443139540039062 1.3579627499999996 L 5.443139540039062 1.4791792499999996 L 5.434283540039061 1.4791792499999996 L 5.406608540039062 1.4343457499999996 L 5.3125135400390615 1.4343457499999996 L 5.3125135400390615 1.5771487499999997 L 5.461405040039062 1.5771487499999997 L 5.495722040039062 1.5068542499999995 L 5.504578040039061 1.5068542499999995 L 5.504578040039061 1.6075912499999996 L 5.218418540039062 1.6075912499999996 M 5.5792881079101555 1.6075912499999996 L 5.5792881079101555 1.5987352499999996 L 5.623568107910155 1.5765952499999996 L 5.623568107910155 1.2732772499999996 L 5.5792881079101555 1.2511372499999995 L 5.5792881079101555 1.2422812499999996 L 5.719323607910155 1.2422812499999996 Q 5.755854607910155 1.2422812499999996 5.784913357910155 1.2514139999999996 Q 5.813972107910155 1.2605467499999996 5.830577107910155 1.2785354999999996 Q 5.847182107910155 1.2965242499999996 5.847182107910155 1.3241992499999995 Q 5.847182107910155 1.3524277499999995 5.828363107910155 1.3759514999999995 Q 5.809544107910155 1.3994752499999996 5.774120107910155 1.4094382499999996 Q 5.8233816079101555 1.4160802499999996 5.851056607910155 1.4401574999999995 Q 5.878731607910155 1.4642347499999997 5.878731607910155 1.5013192499999997 Q 5.878731607910155 1.5317617499999996 5.859635857910155 1.5558389999999995 Q 5.840540107910155 1.5799162499999997 5.807330107910155 1.5937537499999996 Q 5.774120107910155 1.6075912499999996 5.732054107910155 1.6075912499999996 L 5.5792881079101555 1.6075912499999996 M 5.706593107910155 1.2727237499999995 L 5.673383107910155 1.2727237499999995 L 5.673383107910155 1.4039032499999995 L 5.709914107910155 1.4039032499999995 Q 5.749212607910155 1.4039032499999995 5.771352607910155 1.3870214999999997 Q 5.793492607910155 1.3701397499999997 5.793492607910155 1.3396972499999995 Q 5.793492607910155 1.2727237499999995 5.706593107910155 1.2727237499999995 M 5.727626107910155 1.4343457499999996 L 5.673383107910155 1.4343457499999996 L 5.673383107910155 1.5771487499999997 L 5.731500607910155 1.5771487499999997 Q 5.775227107910155 1.5771487499999997 5.800134607910155 1.5572227499999995 Q 5.825042107910155 1.5372967499999997 5.825042107910155 1.5057472499999995 Q 5.825042107910155 1.4681092499999995 5.799857857910155 1.4512274999999997 Q 5.774673607910155 1.4343457499999996 5.727626107910155 1.4343457499999996 M 6.120611378173827 1.6131262499999997 Q 6.079098878173826 1.6131262499999997 6.046719128173827 1.5976282499999996 Q 6.014339378173827 1.5821302499999996 5.995520378173826 1.5497504999999996 Q 5.976701378173827 1.5173707499999995 5.976701378173827 1.4658952499999995 L 5.976701378173827 1.2732772499999996 L 5.932421378173826 1.2511372499999995 L 5.932421378173826 1.2422812499999996 L 6.070796378173827 1.2422812499999996 L 6.070796378173827 1.2511372499999995 L 6.0265163781738265 1.2732772499999996 L 6.0265163781738265 1.4575927499999997 Q 6.0265163781738265 1.5035332499999996 6.040907378173826 1.5306547499999996 Q 6.055298378173827 1.5577762499999996 6.079929128173827 1.5693997499999996 Q 6.104559878173827 1.5810232499999997 6.1350023781738265 1.5810232499999997 Q 6.159356378173826 1.5810232499999997 6.180112628173827 1.5705067499999996 Q 6.200868878173827 1.5599902499999996 6.2133226281738265 1.5372967499999997 Q 6.225776378173826 1.5146032499999995 6.225776378173826 1.4769652499999997 L 6.225776378173826 1.2721702499999996 L 6.170426378173826 1.2511372499999995 L 6.170426378173826 1.2422812499999996 L 6.308247878173827 1.2422812499999996 L 6.308247878173827 1.2511372499999995 L 6.264521378173827 1.2727237499999995 L 6.264521378173827 1.4658952499999995 Q 6.264521378173827 1.5173707499999995 6.245702378173827 1.5497504999999996 Q 6.226883378173826 1.5821302499999996 6.194503628173827 1.5976282499999996 Q 6.162123878173826 1.6131262499999997 6.120611378173827 1.6131262499999997 M 6.5617570942382795 1.6131262499999997 Q 6.508621094238279 1.6131262499999997 6.466831844238279 1.5898792499999996 Q 6.425042594238279 1.5666322499999996 6.401242094238279 1.5265034999999996 Q 6.377441594238279 1.4863747499999995 6.377441594238279 1.4348992499999995 Q 6.377441594238279 1.3922797499999997 6.39266284423828 1.3563022499999997 Q 6.4078840942382795 1.3203247499999997 6.43528234423828 1.2934799999999997 Q 6.46268059423828 1.2666352499999995 6.49810459423828 1.2516907499999996 Q 6.5335285942382795 1.2367462499999995 6.574487594238279 1.2367462499999995 Q 6.60326959423828 1.2367462499999995 6.6237490942382795 1.2400672499999996 Q 6.64422859423828 1.2433882499999998 6.66028009423828 1.2494767499999997 Q 6.676331594238279 1.2555652499999996 6.69238309423828 1.2633142499999996 L 6.69515059423828 1.3546417499999996 L 6.686294594238279 1.3546417499999996 L 6.65031709423828 1.2926497499999996 Q 6.627070094238279 1.2765982499999997 6.610741844238279 1.2705097499999995 Q 6.594413594238279 1.2644212499999996 6.573380594238279 1.2644212499999996 Q 6.530761094238279 1.2644212499999996 6.49755109423828 1.2829634999999997 Q 6.4643410942382795 1.3015057499999996 6.44552209423828 1.3338854999999996 Q 6.426703094238279 1.3662652499999997 6.426703094238279 1.4072242499999996 Q 6.426703094238279 1.4625742499999996 6.446905844238279 1.5013192499999997 Q 6.4671085942382796 1.5400642499999997 6.501425594238279 1.5605437499999997 Q 6.53574259423828 1.5810232499999997 6.577808594238279 1.5810232499999997 Q 6.596074094238279 1.5810232499999997 6.61295584423828 1.5788092499999995 Q 6.629837594238279 1.5765952499999996 6.648103094238279 1.5693997499999996 L 6.648103094238279 1.4780722499999996 L 6.598841594238279 1.4559322499999996 L 6.598841594238279 1.4470762499999996 L 6.73610959423828 1.4470762499999996 L 6.73610959423828 1.4559322499999996 L 6.69791809423828 1.4797327499999997 L 6.69791809423828 1.5666322499999996 Q 6.67245709423828 1.5876652499999997 6.63509584423828 1.6003957499999997 Q 6.59773459423828 1.6131262499999997 6.5617570942382795 1.6131262499999997 M 6.93814006713867 1.6075912499999996 L 6.93814006713867 1.5987352499999996 L 6.98242006713867 1.5765952499999996 L 6.98242006713867 1.2732772499999996 L 6.93814006713867 1.2511372499999995 L 6.93814006713867 1.2422812499999996 L 7.2032665671386695 1.2422812499999996 L 7.2032665671386695 1.3374832499999996 L 7.19441056713867 1.3374832499999996 L 7.16009356713867 1.2727237499999995 L 7.03223506713867 1.2727237499999995 L 7.03223506713867 1.4039032499999995 L 7.12079506713867 1.4039032499999995 L 7.14847006713867 1.3579627499999996 L 7.15732606713867 1.3579627499999996 L 7.15732606713867 1.4791792499999996 L 7.14847006713867 1.4791792499999996 L 7.12079506713867 1.4343457499999996 L 7.03223506713867 1.4343457499999996 L 7.03223506713867 1.5765952499999996 L 7.08205006713867 1.5987352499999996 L 7.08205006713867 1.6075912499999996 L 6.93814006713867 1.6075912499999996 M 7.210454770019529 1.6075912499999996 L 7.210454770019529 1.5987352499999996 L 7.245878770019529 1.5804697499999996 L 7.38757477001953 1.2395137499999995 L 7.412482270019529 1.2395137499999995 L 7.551964270019529 1.5788092499999995 L 7.589048770019529 1.5987352499999996 L 7.589048770019529 1.6075912499999996 L 7.451780770019529 1.6075912499999996 L 7.451780770019529 1.5987352499999996 L 7.50048877001953 1.5799162499999997 L 7.458976270019529 1.4775187499999995 L 7.3244757700195295 1.4775187499999995 L 7.28351677001953 1.5799162499999997 L 7.33001077001953 1.5987352499999996 L 7.33001077001953 1.6075912499999996 L 7.210454770019529 1.6075912499999996 M 7.3372062700195295 1.4470762499999996 L 7.446799270019529 1.4470762499999996 L 7.39200277001953 1.3109152499999996 L 7.3372062700195295 1.4470762499999996 M 7.7534382700195295 1.6131262499999997 Q 7.719121270019529 1.6131262499999997 7.695320770019529 1.6067609999999997 Q 7.6715202700195295 1.6003957499999997 7.646059270019529 1.5876652499999997 L 7.6405242700195295 1.4968912499999996 L 7.649380270019529 1.4968912499999996 L 7.676501770019529 1.5555622499999995 Q 7.696427770019529 1.5721672499999997 7.7152467700195295 1.5796394999999996 Q 7.734065770019529 1.5871117499999996 7.7534382700195295 1.5871117499999996 Q 7.786094770019529 1.5871117499999996 7.804637020019529 1.5699532499999995 Q 7.823179270019529 1.5527947499999997 7.823179270019529 1.5234592499999995 Q 7.823179270019529 1.4991052499999995 7.812386020019529 1.4852677499999996 Q 7.801592770019529 1.4714302499999996 7.781390020019529 1.4606369999999995 Q 7.761187270019529 1.4498437499999997 7.733512270019529 1.4360062499999997 Q 7.707497770019529 1.4227222499999996 7.689232270019529 1.4099917499999997 Q 7.670966770019529 1.3972612499999997 7.661557270019529 1.3803794999999996 Q 7.652147770019529 1.3634977499999996 7.652147770019529 1.3380367499999997 Q 7.652147770019529 1.3192177499999995 7.661280520019529 1.3012289999999995 Q 7.670413270019529 1.2832402499999995 7.686188020019529 1.2685724999999997 Q 7.701962770019529 1.2539047499999996 7.7216120200195295 1.2453254999999996 Q 7.741261270019529 1.2367462499999995 7.762294270019529 1.2367462499999995 Q 7.787755270019529 1.2367462499999995 7.809341770019529 1.2428347499999997 Q 7.830928270019529 1.2489232499999996 7.853621770019529 1.2599932499999995 L 7.8591567700195295 1.3485532499999997 L 7.850300770019529 1.3485532499999997 L 7.824839770019529 1.2904357499999997 Q 7.805467270019529 1.2760447499999996 7.791076270019529 1.2696794999999996 Q 7.776685270019529 1.2633142499999996 7.757866270019529 1.2633142499999996 Q 7.733512270019529 1.2633142499999996 7.717737520019529 1.2799192499999996 Q 7.701962770019529 1.2965242499999996 7.701962770019529 1.3208782499999996 Q 7.701962770019529 1.3491067499999996 7.719121270019529 1.3648814999999996 Q 7.736279770019529 1.3806562499999997 7.772810770019529 1.3983682499999996 Q 7.806574270019529 1.4149732499999996 7.8281607700195295 1.4290874999999996 Q 7.849747270019529 1.4432017499999996 7.860263770019529 1.4614672499999997 Q 7.870780270019529 1.4797327499999997 7.870780270019529 1.5079612499999997 Q 7.870780270019529 1.5339757499999995 7.859710270019529 1.5536249999999996 Q 7.848640270019529 1.5732742499999997 7.831205020019529 1.5865582499999995 Q 7.813769770019529 1.5998422499999996 7.793013520019529 1.6064842499999996 Q 7.772257270019529 1.6131262499999997 7.7534382700195295 1.6131262499999997 M 8.007498013183591 1.6075912499999996 L 8.007498013183591 1.5987352499999996 L 8.062848013183592 1.5765952499999996 L 8.062848013183592 1.2727237499999995 L 7.972627513183592 1.2727237499999995 L 7.9349895131835915 1.3540882499999995 L 7.926133513183592 1.3540882499999995 L 7.926133513183592 1.2422812499999996 L 8.24937751318359 1.2422812499999996 L 8.24937751318359 1.3540882499999995 L 8.240521513183591 1.3540882499999995 L 8.202883513183592 1.2727237499999995 L 8.11266301318359 1.2727237499999995 L 8.11266301318359 1.5765952499999996 L 8.168013013183591 1.5987352499999996 L 8.168013013183591 1.6075912499999996 L 8.007498013183591 1.6075912499999996 M 8.310268729248044 1.6075912499999996 L 8.310268729248044 1.5987352499999996 L 8.354548729248044 1.5765952499999996 L 8.354548729248044 1.2732772499999996 L 8.310268729248044 1.2511372499999995 L 8.310268729248044 1.2422812499999996 L 8.580930229248045 1.2422812499999996 L 8.580930229248045 1.3374832499999996 L 8.572074229248045 1.3374832499999996 L 8.537757229248044 1.2727237499999995 L 8.404363729248045 1.2727237499999995 L 8.404363729248045 1.4039032499999995 L 8.498458729248044 1.4039032499999995 L 8.526133729248045 1.3579627499999996 L 8.534989729248045 1.3579627499999996 L 8.534989729248045 1.4791792499999996 L 8.526133729248045 1.4791792499999996 L 8.498458729248044 1.4343457499999996 L 8.404363729248045 1.4343457499999996 L 8.404363729248045 1.5771487499999997 L 8.553255229248045 1.5771487499999997 L 8.587572229248044 1.5068542499999995 L 8.596428229248044 1.5068542499999995 L 8.596428229248044 1.6075912499999996 L 8.310268729248044 1.6075912499999996 M 8.671138297119137 1.6075912499999996 L 8.671138297119137 1.5987352499999996 L 8.715418297119138 1.5765952499999996 L 8.715418297119138 1.2732772499999996 L 8.671138297119137 1.2511372499999995 L 8.671138297119137 1.2422812499999996 L 8.813941297119138 1.2422812499999996 Q 8.872058797119138 1.2422812499999996 8.905545547119138 1.2663584999999995 Q 8.939032297119137 1.2904357499999997 8.939032297119137 1.3325017499999996 Q 8.939032297119137 1.3634977499999996 8.917999297119138 1.3881284999999997 Q 8.896966297119137 1.4127592499999997 8.862095797119137 1.4254897499999997 L 8.967260797119138 1.5788092499999995 L 9.003791797119138 1.5987352499999996 L 9.003791797119138 1.6075912499999996 L 8.924087797119137 1.6075912499999996 L 8.816708797119137 1.4398807499999995 L 8.765233297119138 1.4398807499999995 L 8.765233297119138 1.5760417499999997 L 8.806745797119138 1.5987352499999996 L 8.806745797119138 1.6075912499999996 L 8.671138297119137 1.6075912499999996 M 8.801210797119138 1.2727237499999995 L 8.765233297119138 1.2727237499999995 L 8.765233297119138 1.4094382499999996 L 8.804531797119138 1.4094382499999996 Q 8.839402297119138 1.4094382499999996 8.862372547119138 1.3897889999999995 Q 8.885342797119138 1.3701397499999997 8.885342797119138 1.3396972499999995 Q 8.885342797119138 1.3087012499999995 8.862649297119138 1.2907124999999997 Q 8.839955797119138 1.2727237499999995 8.801210797119138 1.2727237499999995" fill="#dce2e3" fill-rule="nonzero"></path></g></g><defs><clipPath id="SvgjsClipPath17542"><path d=" M 1.4473365445100064 -5.417262579924519 h 6.10635715389991 v 5.132262579924519 h -6.10635715389991 Z"></path></clipPath><clipPath id="SvgjsClipPath17540baa5b6c6-f752-412d-9189-e94a5afeae09"><path d=" M 1.4473365445100064 -5.417262579924519 L 7.553693698409916 -5.417262579924519 L 7.553693698409916 -0.28500000000000014 L 1.4473365445100064 -0.28500000000000014 Z"></path></clipPath></defs></svg>