<svg xmlns="http://www.w3.org/2000/svg" version="1.1" xmlns:xlink="http://www.w3.org/1999/xlink" xmlns:svgjs="http://svgjs.dev/svgjs" viewBox="0 0 17.26543676015306 5.1375824553709775"><g transform="matrix(0.733468759344715,0,0,0.733468759344715,6.019494874416299,1.8375262210700227)"><g transform="matrix(1,0,0,1,0,0)" clip-path="url(#SvgjsClipPath1546)"><g clip-path="url(#SvgjsClipPath154490715615-053a-4a2f-a833-5f4de170f73e)"><path d=" M -3.430032832587976 1.5615608354711517 C -3.3316908138526737 1.448209072442871 -3.2507214329663108 1.373710797772264 -3.1926694344664543 1.3156587992724078 C -3.1920518600143284 1.315350012046345 -3.191756498319833 1.3150412248202819 -3.191756498319833 1.3150412248202819 L -2.490071090920437 0.6605331353506945 C -2.335328414068137 0.5162086709951312 -2.326749499396211 0.27383754959876094 -2.4710739637517745 0.11909487274646124 C -2.6150896408812745 -0.035339016879775365 -2.857460762277645 -0.04391793155170143 -3.0122034391299444 0.1004065328038618 L -4.0040548603076465 1.0251705727364713 L -4.014473072804384 1.0346758490865864 C -4.049097518718151 1.066856848254985 -4.076364773332676 1.1042335281401836 -4.096288262179527 1.1440670803023196 C -4.098436347230401 1.1483632504040664 -4.100275645055212 1.1523372077481824 -4.102114942880022 1.1566333778499291 C -4.119890346676001 1.1958493555599385 -4.130926133624863 1.2375222055468844 -4.134900090968979 1.2798126299859565 C -4.1358264526471675 1.2914525658553775 -4.136430601567726 1.3031059272563659 -4.136430601567726 1.3147458631257867 L -4.136430601567726 1.3150546503518497 C -4.136430601567726 1.3266945862212705 -4.1358130271156 1.3383479476222593 -4.134900090968979 1.3499878834916799 C -4.130926133624863 1.392278307930752 -4.120199133902063 1.4339511579176978 -4.102114942880022 1.4731671356277072 C -4.100275645055212 1.4774633057294542 -4.098436347230401 1.4814372630735704 -4.096288262179527 1.4857334331753174 C -4.08035215620836 1.5179010068121477 -4.059206943988824 1.5485514953817987 -4.033470199973046 1.5761275372223873 C -4.023978349154499 1.5862369624930606 -4.01416428557832 1.5957422388431757 -4.0040548603076465 1.6046299407411648 L -3.497241043617181 2.077423460438422 C -3.6032624664093555 1.8564929129560828 -3.5423374041539564 1.6909963853178478 -3.430032832587976 1.561574261002719 Z" fill="#4e888f" transform="matrix(1,0,0,1,0,0)" fill-rule="nonzero"></path></g><g clip-path="url(#SvgjsClipPath154490715615-053a-4a2f-a833-5f4de170f73e)"><path d=" M -3.1424176698075827 1.3607014576829117 C -3.168154413823361 1.3796985848515744 -3.2046181575619386 1.408496350064847 -3.2441429224980105 1.4458864554816142 C -3.367013387407975 1.560795580171778 -3.5177552558530225 1.696474002197576 -3.489588490623444 1.9262922515779046 C -3.47829761857479 2.0183913981341055 -3.427388002869088 2.1426715438587056 -3.427388002869088 2.1426715438587056 L -3.012190013598377 2.5296759168367027 C -2.9383495899746004 2.598307234212111 -2.844894464730035 2.63232753120532 -2.751130552259407 2.63232753120532 C -2.6487877251168523 2.63232753120532 -2.5464448979742986 2.5915810428965633 -2.4710605382202067 2.51067878966804 C -2.3267360738646437 2.3559361128157397 -2.3353149885365694 2.11356499141937 -2.490057665388869 1.9692405270638067 L -3.1424176698075827 1.3607014576829126 Z" fill="#bab9b4" transform="matrix(1,0,0,1,0,0)" fill-rule="nonzero"></path></g><g clip-path="url(#SvgjsClipPath154490715615-053a-4a2f-a833-5f4de170f73e)"><path d=" M -0.9514111945113184 0.9257410859441642 C -1.0497532132466203 0.812389322915883 -1.1307225941329833 0.7378910482452767 -1.1887745926328401 0.6798390497454201 C -1.189392167084966 0.6795302625193571 -1.1896875287794613 0.6792214752932939 -1.1896875287794613 0.6792214752932939 L -1.8913729361788572 0.024713385823706857 C -2.046115613031157 -0.11961107853185637 -2.054694527703083 -0.36198219992822667 -1.91037006334752 -0.5167248767805264 C -1.76635438621802 -0.6711587664067631 -1.5239832648216494 -0.679737681078689 -1.3692405879693497 -0.5354132167231259 L -0.3773757412600798 0.3893508232094831 L -0.36695752876334353 0.39885609955959844 C -0.33233308284957586 0.431037098727997 -0.30506582823505024 0.46841377861319566 -0.28514233938819844 0.5082473307753312 C -0.28299425433732495 0.5125435008770785 -0.2811549565125153 0.5165174582211942 -0.27931565868770436 0.5208136283229412 C -0.26154025489172605 0.5600296060329504 -0.2505044679428634 0.6017024560198962 -0.2465305105987472 0.6439928804589683 C -0.24560414892055782 0.6556328163283893 -0.2450000000000001 0.6672861777293777 -0.2450000000000001 0.6789261135987985 L -0.2450000000000001 0.6792349008248617 C -0.2450000000000001 0.6908748366942823 -0.24561757445212606 0.7025281980952711 -0.2465305105987472 0.7141681339646921 C -0.2505044679428634 0.7564585584037637 -0.26123146766566263 0.7981314083907096 -0.27931565868770436 0.837347386100719 C -0.28115495651251443 0.841643556202466 -0.28299425433732495 0.845617513546582 -0.28514233938819844 0.849913683648329 C -0.3010784453593667 0.8820812572851595 -0.3222236575789026 0.9127317458548105 -0.34796040159468067 0.9403077876953994 C -0.3574522524132284 0.9504172129660731 -0.36726631598940607 0.9599224893161882 -0.3773757412600798 0.9688101912141771 L -0.8841895579505454 1.4416037109114341 C -0.7781681351583707 1.220673163429095 -0.8390931974137694 1.05517663579086 -0.9513977689797497 0.9257545114757315 Z" fill="#bab9b4" transform="matrix(1,0,0,1,0,0)" fill-rule="nonzero"></path></g><g clip-path="url(#SvgjsClipPath154490715615-053a-4a2f-a833-5f4de170f73e)"><path d=" M -1.2390263572917117 0.7248951336874918 C -1.2132896132759332 0.7438922608561545 -1.176825869537356 0.7726900260694272 -1.1373011046012835 0.8100801314861938 C -1.0144306396913199 0.9249892561763582 -0.8636887712462715 1.060667678202156 -0.8918555364758505 1.2904859275824843 C -0.903146408524504 1.3825850741386854 -0.9540560242302063 1.5068652198632855 -0.9540560242302063 1.5068652198632855 L -1.3692540135009175 1.8938695928412816 C -1.443094437124694 1.9625009102166902 -1.536549562369259 1.9965212072098992 -1.6303134748398875 1.9965212072098992 C -1.7326563019824417 1.9965212072098992 -1.8349991291249959 1.9557747189011423 -1.9103834888790874 1.8748724656726192 C -2.054707953234651 1.7201297888203195 -2.0461290385627247 1.477758667423949 -1.891386361710425 1.333434203068386 L -1.2390263572917117 0.7248951336874916 Z" fill="#4e888f" transform="matrix(1,0,0,1,0,0)" fill-rule="nonzero"></path></g></g><g><path d=" M 0.6863999999999999 1.1668799999999997 Q 0.509652 1.1668799999999997 0.38095199999999996 1.0948079999999996 Q 0.252252 1.0227359999999996 0.18189599999999997 0.8974679999999997 Q 0.11153999999999999 0.7721999999999997 0.11153999999999999 0.6126119999999997 Q 0.11153999999999999 0.4890599999999997 0.15958799999999998 0.3792359999999997 Q 0.207636 0.26941199999999965 0.29086199999999995 0.18361199999999966 Q 0.374088 0.09781199999999979 0.48219599999999996 0.04890599999999967 Q 0.5903039999999999 -2.220446049250313e-16 0.71214 -2.220446049250313e-16 Q 0.7996559999999999 -2.220446049250313e-16 0.8597159999999999 0.011153999999999664 Q 0.9197759999999999 0.022307999999999772 0.9669659999999999 0.04032599999999964 Q 1.0141559999999998 0.05834399999999973 1.062204 0.08236799999999977 L 1.0725 0.3878159999999997 L 1.041612 0.3878159999999997 L 0.9232079999999999 0.16473599999999966 Q 0.864864 0.12355199999999966 0.8176739999999999 0.10467599999999977 Q 0.770484 0.08579999999999965 0.71214 0.08579999999999965 Q 0.5937359999999999 0.08579999999999965 0.49935599999999997 0.1475759999999997 Q 0.40497599999999995 0.20935199999999976 0.35092199999999996 0.31831799999999966 Q 0.29686799999999997 0.42728399999999966 0.29686799999999997 0.5697119999999997 Q 0.29686799999999997 0.7292999999999996 0.34920599999999996 0.8434139999999997 Q 0.40154399999999996 0.9575279999999997 0.49077599999999993 1.0175879999999997 Q 0.580008 1.0776479999999997 0.688116 1.0776479999999997 Q 0.7773479999999999 1.0776479999999997 0.838266 1.0536239999999997 Q 0.8991839999999999 1.0295999999999996 0.947232 0.9969959999999997 L 1.062204 0.8048039999999996 L 1.091376 0.8048039999999996 L 1.070784 1.0810799999999996 Q 0.9952799999999999 1.1188319999999996 0.90948 1.1428559999999996 Q 0.82368 1.1668799999999997 0.6863999999999999 1.1668799999999997 M 1.9270420253906249 1.1668799999999997 Q 1.8034900253906248 1.1668799999999997 1.6979560253906247 1.1231219999999997 Q 1.592422025390625 1.0793639999999995 1.5143440253906248 1.0012859999999997 Q 1.436266025390625 0.9232079999999996 1.3933660253906248 0.8168159999999997 Q 1.3504660253906249 0.7104239999999997 1.3504660253906249 0.5834399999999996 Q 1.3504660253906249 0.45645599999999964 1.3933660253906248 0.3500639999999997 Q 1.436266025390625 0.24367199999999967 1.5143440253906248 0.16559399999999969 Q 1.592422025390625 0.0875159999999997 1.6979560253906247 0.04375799999999974 Q 1.8034900253906248 -2.220446049250313e-16 1.9270420253906249 -2.220446049250313e-16 Q 2.050594025390625 -2.220446049250313e-16 2.156128025390625 0.04375799999999974 Q 2.261662025390625 0.0875159999999997 2.3397400253906246 0.16559399999999969 Q 2.4178180253906247 0.24367199999999967 2.4615760253906247 0.3500639999999997 Q 2.505334025390625 0.45645599999999964 2.505334025390625 0.5834399999999996 Q 2.505334025390625 0.7104239999999997 2.4615760253906247 0.8168159999999997 Q 2.4178180253906247 0.9232079999999996 2.3397400253906246 1.0012859999999997 Q 2.261662025390625 1.0793639999999995 2.156128025390625 1.1231219999999997 Q 2.050594025390625 1.1668799999999997 1.9270420253906249 1.1668799999999997 M 1.961362025390625 1.0810799999999996 Q 2.066038025390625 1.0810799999999996 2.144974025390625 1.0261679999999997 Q 2.2239100253906248 0.9712559999999997 2.2685260253906248 0.8717279999999996 Q 2.3131420253906247 0.7721999999999997 2.3131420253906247 0.6366359999999996 Q 2.3131420253906247 0.4701839999999997 2.258230025390625 0.3457739999999997 Q 2.203318025390625 0.22136399999999967 2.108938025390625 0.15272399999999975 Q 2.014558025390625 0.08408399999999983 1.899586025390625 0.08408399999999983 Q 1.794910025390625 0.08408399999999983 1.7142580253906248 0.13813799999999965 Q 1.6336060253906248 0.1921919999999997 1.5881320253906248 0.29171999999999965 Q 1.542658025390625 0.3912479999999997 1.542658025390625 0.5268119999999997 Q 1.542658025390625 0.6932639999999997 1.598428025390625 0.8185319999999996 Q 1.6541980253906248 0.9437999999999996 1.749436025390625 1.0124399999999996 Q 1.8446740253906249 1.0810799999999996 1.961362025390625 1.0810799999999996 M 2.7197971582031246 1.1497199999999996 L 2.7197971582031246 1.1222639999999997 L 2.8587931582031247 1.0536239999999997 L 2.8587931582031247 0.1132559999999998 L 2.7197971582031246 0.04461599999999977 L 2.7197971582031246 0.01715999999999962 L 3.2414611582031245 0.01715999999999962 Q 3.433653158203125 0.01715999999999962 3.5692171582031245 0.08408399999999983 Q 3.704781158203125 0.1510079999999997 3.7759951582031244 0.2676959999999997 Q 3.8472091582031247 0.3843839999999997 3.8472091582031247 0.5319599999999997 Q 3.8472091582031247 0.6658079999999997 3.8008771582031247 0.7790639999999996 Q 3.7545451582031246 0.8923199999999997 3.671319158203125 0.9746879999999997 Q 3.5880931582031246 1.0570559999999996 3.4756951582031244 1.1033879999999996 Q 3.3632971582031246 1.1497199999999996 3.2294491582031246 1.1497199999999996 L 2.7197971582031246 1.1497199999999996 M 3.1951291582031245 0.11153999999999975 L 3.0389731582031247 0.11153999999999975 L 3.0389731582031247 1.0553399999999997 L 3.220869158203125 1.0553399999999997 Q 3.3581491582031244 1.0553399999999997 3.4559611582031247 0.9978539999999996 Q 3.5537731582031244 0.9403679999999996 3.6069691582031247 0.8348339999999996 Q 3.6601651582031245 0.7292999999999996 3.6601651582031245 0.5851559999999997 Q 3.6601651582031245 0.4427279999999997 3.6061111582031247 0.3354779999999997 Q 3.552057158203125 0.22822799999999965 3.4482391582031244 0.1698839999999997 Q 3.3444211582031245 0.11153999999999975 3.1951291582031245 0.11153999999999975 M 4.060003212890625 1.1497199999999996 L 4.060003212890625 1.1222639999999997 L 4.198999212890625 1.0536239999999997 L 4.198999212890625 0.1132559999999998 L 4.060003212890625 0.04461599999999977 L 4.060003212890625 0.01715999999999962 L 4.921435212890625 0.01715999999999962 L 4.921435212890625 0.3123119999999997 L 4.893979212890625 0.3123119999999997 L 4.782439212890624 0.11153999999999975 L 4.379179212890625 0.11153999999999975 L 4.379179212890625 0.5182319999999997 L 4.664035212890624 0.5182319999999997 L 4.751551212890624 0.37408799999999964 L 4.779007212890624 0.37408799999999964 L 4.779007212890624 0.7533239999999997 L 4.751551212890624 0.7533239999999997 L 4.664035212890624 0.6126119999999997 L 4.379179212890625 0.6126119999999997 L 4.379179212890625 1.0553399999999997 L 4.828771212890625 1.0553399999999997 L 4.942027212890625 0.8288279999999997 L 4.969483212890625 0.8288279999999997 L 4.969483212890625 1.1497199999999996 L 4.060003212890625 1.1497199999999996 M 5.54433734765625 1.1668799999999997 Q 5.4362293476562495 1.1668799999999997 5.35986734765625 1.1462879999999995 Q 5.2835053476562495 1.1256959999999996 5.20285334765625 1.0862279999999997 L 5.18569334765625 0.8030879999999996 L 5.21314934765625 0.8030879999999996 L 5.30409734765625 0.9901319999999997 Q 5.36415734765625 1.0398959999999997 5.42250134765625 1.0622039999999997 Q 5.48084534765625 1.0845119999999997 5.53918934765625 1.0845119999999997 Q 5.63871734765625 1.0845119999999997 5.69620334765625 1.0330319999999997 Q 5.75368934765625 0.9815519999999996 5.75368934765625 0.8923199999999997 Q 5.75368934765625 0.8219639999999997 5.72194334765625 0.7799219999999997 Q 5.69019734765625 0.7378799999999996 5.62756334765625 0.7044179999999997 Q 5.56492934765625 0.6709559999999997 5.47398134765625 0.6263399999999997 Q 5.35214534765625 0.5679959999999997 5.28693734765625 0.5036459999999997 Q 5.22172934765625 0.4392959999999997 5.22172934765625 0.3226079999999997 Q 5.22172934765625 0.26083199999999973 5.25175934765625 0.2033459999999997 Q 5.28178934765625 0.14585999999999966 5.33326934765625 0.10038599999999964 Q 5.38474934765625 0.05491199999999963 5.44824134765625 0.027455999999999703 Q 5.51173334765625 -2.220446049250313e-16 5.58037334765625 -2.220446049250313e-16 Q 5.66102534765625 -2.220446049250313e-16 5.731381347656249 0.01887599999999967 Q 5.80173734765625 0.037751999999999786 5.87037734765625 0.07378799999999974 L 5.88753734765625 0.34834799999999966 L 5.86008134765625 0.34834799999999966 L 5.77084934765625 0.16473599999999966 Q 5.71593734765625 0.12183599999999961 5.671321347656249 0.10295999999999972 Q 5.62670534765625 0.08408399999999983 5.57007734765625 0.08408399999999983 Q 5.4962893476562495 0.08408399999999983 5.44738334765625 0.13384799999999974 Q 5.39847734765625 0.18361199999999966 5.39847734765625 0.2591159999999997 Q 5.39847734765625 0.3431999999999997 5.45081534765625 0.3912479999999997 Q 5.50315334765625 0.4392959999999997 5.61984134765625 0.49420799999999965 Q 5.72280134765625 0.5439719999999997 5.79058334765625 0.5894459999999997 Q 5.85836534765625 0.6349199999999997 5.89096934765625 0.6915479999999996 Q 5.92357334765625 0.7481759999999997 5.92357334765625 0.8356919999999997 Q 5.92357334765625 0.9163439999999996 5.88925334765625 0.9781199999999997 Q 5.8549333476562495 1.0398959999999997 5.79830534765625 1.0819379999999996 Q 5.74167734765625 1.1239799999999995 5.6756113476562495 1.1454299999999997 Q 5.609545347656249 1.1668799999999997 5.54433734765625 1.1668799999999997 M 6.11922416015625 1.1497199999999996 L 6.11922416015625 1.1222639999999997 L 6.25822016015625 1.0536239999999997 L 6.25822016015625 0.1132559999999998 L 6.11922416015625 0.04461599999999977 L 6.11922416015625 0.01715999999999962 L 6.98065616015625 0.01715999999999962 L 6.98065616015625 0.3123119999999997 L 6.95320016015625 0.3123119999999997 L 6.841660160156249 0.11153999999999975 L 6.43840016015625 0.11153999999999975 L 6.43840016015625 0.5182319999999997 L 6.723256160156249 0.5182319999999997 L 6.810772160156249 0.37408799999999964 L 6.83822816015625 0.37408799999999964 L 6.83822816015625 0.7533239999999997 L 6.810772160156249 0.7533239999999997 L 6.723256160156249 0.6126119999999997 L 6.43840016015625 0.6126119999999997 L 6.43840016015625 1.0553399999999997 L 6.88799216015625 1.0553399999999997 L 7.0012481601562495 0.8288279999999997 L 7.028704160156249 0.8288279999999997 L 7.028704160156249 1.1497199999999996 L 6.11922416015625 1.1497199999999996 M 7.243198294921875 1.1497199999999996 L 7.243198294921875 1.1222639999999997 L 7.382194294921875 1.0536239999999997 L 7.382194294921875 0.11668799999999968 L 7.244914294921875 0.04461599999999977 L 7.244914294921875 0.01715999999999962 L 7.514326294921875 0.01715999999999962 L 8.171554294921874 0.8253959999999996 L 8.171554294921874 0.11153999999999975 L 7.994806294921875 0.04461599999999977 L 7.994806294921875 0.01715999999999962 L 8.428954294921875 0.01715999999999962 L 8.428954294921875 0.04461599999999977 L 8.291674294921874 0.11153999999999975 L 8.291674294921874 1.1582999999999997 L 8.217886294921875 1.1582999999999997 L 7.502314294921875 0.27970799999999973 L 7.502314294921875 1.0553399999999997 L 7.6790622949218745 1.1222639999999997 L 7.6790622949218745 1.1497199999999996 L 7.243198294921875 1.1497199999999996 M 8.981469427734375 1.1668799999999997 Q 8.873361427734375 1.1668799999999997 8.796999427734375 1.1462879999999995 Q 8.720637427734376 1.1256959999999996 8.639985427734375 1.0862279999999997 L 8.622825427734375 0.8030879999999996 L 8.650281427734376 0.8030879999999996 L 8.741229427734375 0.9901319999999997 Q 8.801289427734375 1.0398959999999997 8.859633427734375 1.0622039999999997 Q 8.917977427734375 1.0845119999999997 8.976321427734375 1.0845119999999997 Q 9.075849427734376 1.0845119999999997 9.133335427734375 1.0330319999999997 Q 9.190821427734376 0.9815519999999996 9.190821427734376 0.8923199999999997 Q 9.190821427734376 0.8219639999999997 9.159075427734376 0.7799219999999997 Q 9.127329427734375 0.7378799999999996 9.064695427734375 0.7044179999999997 Q 9.002061427734375 0.6709559999999997 8.911113427734376 0.6263399999999997 Q 8.789277427734376 0.5679959999999997 8.724069427734376 0.5036459999999997 Q 8.658861427734376 0.4392959999999997 8.658861427734376 0.3226079999999997 Q 8.658861427734376 0.26083199999999973 8.688891427734376 0.2033459999999997 Q 8.718921427734376 0.14585999999999966 8.770401427734376 0.10038599999999964 Q 8.821881427734375 0.05491199999999963 8.885373427734375 0.027455999999999703 Q 8.948865427734376 -2.220446049250313e-16 9.017505427734376 -2.220446049250313e-16 Q 9.098157427734375 -2.220446049250313e-16 9.168513427734375 0.01887599999999967 Q 9.238869427734375 0.037751999999999786 9.307509427734376 0.07378799999999974 L 9.324669427734376 0.34834799999999966 L 9.297213427734375 0.34834799999999966 L 9.207981427734376 0.16473599999999966 Q 9.153069427734376 0.12183599999999961 9.108453427734375 0.10295999999999972 Q 9.063837427734375 0.08408399999999983 9.007209427734375 0.08408399999999983 Q 8.933421427734375 0.08408399999999983 8.884515427734375 0.13384799999999974 Q 8.835609427734376 0.18361199999999966 8.835609427734376 0.2591159999999997 Q 8.835609427734376 0.3431999999999997 8.887947427734375 0.3912479999999997 Q 8.940285427734375 0.4392959999999997 9.056973427734375 0.49420799999999965 Q 9.159933427734375 0.5439719999999997 9.227715427734376 0.5894459999999997 Q 9.295497427734375 0.6349199999999997 9.328101427734376 0.6915479999999996 Q 9.360705427734375 0.7481759999999997 9.360705427734375 0.8356919999999997 Q 9.360705427734375 0.9163439999999996 9.326385427734376 0.9781199999999997 Q 9.292065427734375 1.0398959999999997 9.235437427734375 1.0819379999999996 Q 9.178809427734375 1.1239799999999995 9.112743427734376 1.1454299999999997 Q 9.046677427734375 1.1668799999999997 8.981469427734375 1.1668799999999997 M 9.556356240234376 1.1497199999999996 L 9.556356240234376 1.1222639999999997 L 9.695352240234376 1.0536239999999997 L 9.695352240234376 0.1132559999999998 L 9.556356240234376 0.04461599999999977 L 9.556356240234376 0.01715999999999962 L 10.417788240234376 0.01715999999999962 L 10.417788240234376 0.3123119999999997 L 10.390332240234375 0.3123119999999997 L 10.278792240234376 0.11153999999999975 L 9.875532240234376 0.11153999999999975 L 9.875532240234376 0.5182319999999997 L 10.160388240234376 0.5182319999999997 L 10.247904240234377 0.37408799999999964 L 10.275360240234376 0.37408799999999964 L 10.275360240234376 0.7533239999999997 L 10.247904240234377 0.7533239999999997 L 10.160388240234376 0.6126119999999997 L 9.875532240234376 0.6126119999999997 L 9.875532240234376 1.0553399999999997 L 10.325124240234375 1.0553399999999997 L 10.438380240234377 0.8288279999999997 L 10.465836240234376 0.8288279999999997 L 10.465836240234376 1.1497199999999996 L 9.556356240234376 1.1497199999999996 M 10.694058375000001 1.1497199999999996 L 10.694058375000001 1.1222639999999997 L 10.834770375000002 1.0536239999999997 L 10.834770375000002 0.1132559999999998 L 10.694058375000001 0.04461599999999977 L 10.694058375000001 0.01715999999999962 L 11.152230375000002 0.01715999999999962 L 11.152230375000002 0.04461599999999977 L 11.013234375000001 0.1132559999999998 L 11.013234375000001 1.0536239999999997 L 11.152230375000002 1.1222639999999997 L 11.152230375000002 1.1497199999999996 L 10.694058375000001 1.1497199999999996" fill="#ffffff" fill-rule="nonzero"></path></g><g><path d=" M 0.26489999999999997 2.0006133749999995 Q 0.19735049999999998 2.0006133749999995 0.148344 1.9727988749999992 Q 0.0993375 1.9449843749999993 0.0728475 1.8969712499999993 Q 0.046357499999999996 1.8489581249999993 0.046357499999999996 1.7873688749999992 Q 0.046357499999999996 1.7403491249999994 0.064569375 1.6976339999999994 Q 0.08278125 1.6549188749999992 0.114238125 1.6218063749999994 Q 0.145695 1.5886938749999993 0.18708562499999998 1.5694886249999993 Q 0.22847625 1.5502833749999994 0.27483375 1.5502833749999994 Q 0.30794625 1.5502833749999994 0.331125 1.5545879999999994 Q 0.35430375 1.5588926249999993 0.37251562499999996 1.5658462499999992 Q 0.3907275 1.5727998749999994 0.4092705 1.5820713749999993 L 0.41258174999999997 1.6979651249999992 L 0.40066124999999997 1.6979651249999992 L 0.360264 1.6171706249999993 Q 0.33509849999999997 1.5992898749999993 0.316224375 1.5913428749999992 Q 0.29735025 1.5833958749999992 0.27350925 1.5833958749999992 Q 0.22582724999999998 1.5833958749999992 0.18841012499999998 1.6072368749999992 Q 0.150993 1.6310778749999992 0.12946987499999998 1.6724684999999992 Q 0.10794675 1.7138591249999993 0.10794675 1.7675013749999993 Q 0.10794675 1.8304151249999994 0.12880762499999998 1.8751169999999993 Q 0.14966849999999998 1.9198188749999994 0.185098875 1.9433287499999994 Q 0.22052924999999998 1.9668386249999992 0.26357549999999996 1.9668386249999992 Q 0.29999925 1.9668386249999992 0.32483362499999996 1.9565737499999993 Q 0.349668 1.9463088749999993 0.36887325 1.9337261249999993 L 0.40860825 1.8628653749999993 L 0.4198665 1.8628653749999993 L 0.41258174999999997 1.9681631249999993 Q 0.39337649999999996 1.9780968749999992 0.373177875 1.9853816249999994 Q 0.35297924999999997 1.9926663749999993 0.3271515 1.9966398749999992 Q 0.30132375 2.0006133749999995 0.26489999999999997 2.0006133749999995 M 0.747026730834961 2.0006133749999995 Q 0.699344730834961 2.0006133749999995 0.6592786058349609 1.9837259999999992 Q 0.6192124808349609 1.9668386249999992 0.5894112308349609 1.9367062499999992 Q 0.5596099808349609 1.9065738749999992 0.543053730834961 1.8655143749999992 Q 0.526497480834961 1.8244548749999994 0.526497480834961 1.7754483749999992 Q 0.526497480834961 1.7264418749999992 0.543053730834961 1.6853823749999992 Q 0.5596099808349609 1.6443228749999994 0.5894112308349609 1.6141904999999994 Q 0.6192124808349609 1.5840581249999994 0.6592786058349609 1.5671707499999994 Q 0.699344730834961 1.5502833749999994 0.747026730834961 1.5502833749999994 Q 0.794708730834961 1.5502833749999994 0.835105980834961 1.5671707499999994 Q 0.875503230834961 1.5840581249999994 0.905304480834961 1.6141904999999994 Q 0.935105730834961 1.6443228749999994 0.9516619808349609 1.6853823749999992 Q 0.968218230834961 1.7264418749999992 0.968218230834961 1.7754483749999992 Q 0.968218230834961 1.8244548749999994 0.9516619808349609 1.8655143749999992 Q 0.935105730834961 1.9065738749999992 0.905304480834961 1.9367062499999992 Q 0.875503230834961 1.9668386249999992 0.835105980834961 1.9837259999999992 Q 0.794708730834961 2.0006133749999995 0.747026730834961 2.0006133749999995 M 0.7609339808349609 1.9675008749999994 Q 0.8033179808349609 1.9675008749999994 0.835437105834961 1.9463088749999993 Q 0.8675562308349609 1.9251168749999992 0.8857681058349609 1.8867063749999993 Q 0.9039799808349609 1.8482958749999994 0.9039799808349609 1.7959781249999993 Q 0.9039799808349609 1.7317398749999993 0.881463480834961 1.6837267499999993 Q 0.858946980834961 1.6357136249999993 0.8208676058349609 1.6092236249999994 Q 0.782788230834961 1.5827336249999993 0.7357684808349609 1.5827336249999993 Q 0.693384480834961 1.5827336249999993 0.660603105834961 1.6035944999999994 Q 0.627821730834961 1.6244553749999993 0.609278730834961 1.6628658749999992 Q 0.590735730834961 1.7012763749999993 0.590735730834961 1.7535941249999993 Q 0.590735730834961 1.8178323749999992 0.6135833558349609 1.8661766249999994 Q 0.636430980834961 1.9145208749999993 0.674841480834961 1.9410108749999992 Q 0.7132519808349609 1.9675008749999994 0.7609339808349609 1.9675008749999994 M 1.0569642579345704 1.9939908749999993 L 1.0569642579345704 1.9833948749999992 L 1.1099442579345704 1.9569048749999993 L 1.1099442579345704 1.5939918749999993 L 1.0569642579345704 1.5675018749999992 L 1.0569642579345704 1.5569058749999993 L 1.2510035079345705 1.5569058749999993 Q 1.3238510079345704 1.5569058749999993 1.3755065079345705 1.5827336249999993 Q 1.4271620079345704 1.6085613749999994 1.4539831329345705 1.6535943749999993 Q 1.4808042579345704 1.6986273749999992 1.4808042579345704 1.7555808749999993 Q 1.4808042579345704 1.8072363749999993 1.4632546329345704 1.8509448749999993 Q 1.4457050079345704 1.8946533749999992 1.4139170079345704 1.9264413749999993 Q 1.3821290079345705 1.9582293749999993 1.3394138829345703 1.9761101249999993 Q 1.2966987579345703 1.9939908749999993 1.2463677579345704 1.9939908749999993 L 1.0569642579345704 1.9939908749999993 M 1.2357717579345704 1.5933296249999993 L 1.1695467579345704 1.5933296249999993 L 1.1695467579345704 1.9575671249999993 L 1.2457055079345705 1.9575671249999993 Q 1.2986855079345705 1.9575671249999993 1.3374271329345704 1.9353817499999992 Q 1.3761687579345705 1.9131963749999992 1.3970296329345704 1.8724679999999994 Q 1.4178905079345703 1.8317396249999993 1.4178905079345703 1.7761106249999994 Q 1.4178905079345703 1.7211438749999992 1.3966985079345704 1.6797532499999992 Q 1.3755065079345705 1.6383626249999992 1.3347781329345705 1.6158461249999994 Q 1.2940497579345704 1.5933296249999993 1.2357717579345704 1.5933296249999993 M 1.569561926147461 1.9939908749999993 L 1.569561926147461 1.9833948749999992 L 1.622541926147461 1.9569048749999993 L 1.622541926147461 1.5939918749999993 L 1.569561926147461 1.5675018749999992 L 1.569561926147461 1.5569058749999993 L 1.893402176147461 1.5569058749999993 L 1.893402176147461 1.6708128749999993 L 1.882806176147461 1.6708128749999993 L 1.841746676147461 1.5933296249999993 L 1.682144426147461 1.5933296249999993 L 1.682144426147461 1.7502828749999992 L 1.794726926147461 1.7502828749999992 L 1.8278394261474609 1.6953161249999993 L 1.838435426147461 1.6953161249999993 L 1.838435426147461 1.8403488749999992 L 1.8278394261474609 1.8403488749999992 L 1.794726926147461 1.7867066249999992 L 1.682144426147461 1.7867066249999992 L 1.682144426147461 1.9575671249999993 L 1.860289676147461 1.9575671249999993 L 1.901349176147461 1.8734613749999993 L 1.9119451761474608 1.8734613749999993 L 1.9119451761474608 1.9939908749999993 L 1.569561926147461 1.9939908749999993 M 2.2973598013916017 2.0006133749999995 Q 2.2563003013916014 2.0006133749999995 2.2278235513916016 1.9929974999999993 Q 2.1993468013916013 1.9853816249999994 2.1688833013916016 1.9701498749999993 L 2.1622608013916014 1.8615408749999993 L 2.1728568013916014 1.8615408749999993 L 2.2053070513916015 1.9317393749999994 Q 2.2291480513916015 1.9516068749999993 2.2516645513916016 1.9605472499999992 Q 2.2741810513916016 1.9694876249999993 2.2973598013916017 1.9694876249999993 Q 2.3364325513916016 1.9694876249999993 2.3586179263916014 1.9489578749999992 Q 2.3808033013916017 1.9284281249999993 2.3808033013916017 1.8933288749999992 Q 2.3808033013916017 1.8641898749999992 2.3678894263916015 1.8476336249999994 Q 2.3549755513916013 1.8310773749999993 2.3308034263916015 1.8181634999999994 Q 2.3066313013916013 1.8052496249999992 2.2735188013916017 1.7886933749999994 Q 2.2423930513916015 1.7727993749999993 2.2205388013916014 1.7575676249999992 Q 2.1986845513916013 1.7423358749999993 2.1874263013916013 1.7221372499999994 Q 2.1761680513916013 1.7019386249999993 2.1761680513916013 1.6714751249999993 Q 2.1761680513916013 1.6489586249999992 2.1870951763916016 1.6274354999999994 Q 2.1980223013916014 1.6059123749999993 2.2168964263916013 1.5883627499999993 Q 2.2357705513916013 1.5708131249999993 2.2592804263916015 1.5605482499999992 Q 2.2827903013916013 1.5502833749999994 2.3079558013916017 1.5502833749999994 Q 2.3384193013916015 1.5502833749999994 2.3642470513916014 1.5575681249999993 Q 2.3900748013916013 1.5648528749999993 2.4172270513916017 1.5780978749999992 L 2.4238495513916014 1.6840578749999993 L 2.4132535513916014 1.6840578749999993 L 2.3827900513916016 1.6145216249999992 Q 2.3596113013916016 1.5973031249999994 2.3423928013916013 1.5896872499999992 Q 2.3251743013916015 1.5820713749999993 2.3026578013916015 1.5820713749999993 Q 2.2735188013916017 1.5820713749999993 2.2546446763916017 1.6019388749999992 Q 2.2357705513916013 1.6218063749999994 2.2357705513916013 1.6509453749999992 Q 2.2357705513916013 1.6847201249999992 2.2563003013916014 1.7035942499999992 Q 2.2768300513916016 1.7224683749999992 2.3205385513916017 1.7436603749999993 Q 2.3609358013916015 1.7635278749999992 2.3867635513916015 1.7804152499999992 Q 2.4125913013916014 1.7973026249999993 2.4251740513916014 1.8191568749999993 Q 2.4377568013916013 1.8410111249999992 2.4377568013916013 1.8747858749999993 Q 2.4377568013916013 1.9059116249999992 2.4245118013916014 1.9294214999999992 Q 2.4112668013916014 1.9529313749999992 2.3904059263916015 1.9688253749999993 Q 2.3695450513916017 1.9847193749999992 2.3447106763916015 1.9926663749999993 Q 2.3198763013916013 2.0006133749999995 2.2973598013916017 2.0006133749999995 M 2.513257181762695 1.9939908749999993 L 2.513257181762695 1.9833948749999992 L 2.5655749317626952 1.9569048749999993 L 2.579482181762695 1.5946541249999993 L 2.522528681762695 1.5675018749999992 L 2.522528681762695 1.5569058749999993 L 2.645044931762695 1.5569058749999993 L 2.798024681762695 1.9092228749999993 L 2.950342181762695 1.5569058749999993 L 3.0668981817626952 1.5569058749999993 L 3.0668981817626952 1.5675018749999992 L 3.011269181762695 1.5939918749999993 L 3.022527431762695 1.9569048749999993 L 3.068884931762695 1.9833948749999992 L 3.068884931762695 1.9939908749999993 L 2.916567431762695 1.9939908749999993 L 2.916567431762695 1.9833948749999992 L 2.965573931762695 1.9575671249999993 L 2.9589514317626953 1.6310778749999992 L 2.800673681762695 1.9973021249999994 L 2.770872431762695 1.9973021249999994 L 2.615243681762695 1.6357136249999993 L 2.606634431762695 1.9575671249999993 L 2.6602766817626953 1.9833948749999992 L 2.6602766817626953 1.9939908749999993 L 2.513257181762695 1.9939908749999993 M 3.129801584106445 1.9939908749999993 L 3.129801584106445 1.9833948749999992 L 3.172185584106445 1.9615406249999994 L 3.341721584106445 1.5535946249999992 L 3.371522834106445 1.5535946249999992 L 3.538409834106445 1.9595538749999992 L 3.582780584106445 1.9833948749999992 L 3.582780584106445 1.9939908749999993 L 3.418542584106445 1.9939908749999993 L 3.418542584106445 1.9833948749999992 L 3.476820584106445 1.9608783749999992 L 3.427151834106445 1.8383621249999993 L 3.266225084106445 1.8383621249999993 L 3.217218584106445 1.9608783749999992 L 3.272847584106445 1.9833948749999992 L 3.272847584106445 1.9939908749999993 L 3.129801584106445 1.9939908749999993 M 3.2814568341064447 1.8019383749999993 L 3.412582334106445 1.8019383749999993 L 3.347019584106445 1.6390248749999992 L 3.2814568341064447 1.8019383749999993 M 3.6470188341064453 1.9939908749999993 L 3.6470188341064453 1.9833948749999992 L 3.699998834106445 1.9569048749999993 L 3.699998834106445 1.5939918749999993 L 3.6470188341064453 1.5675018749999992 L 3.6470188341064453 1.5569058749999993 L 3.817879334106445 1.5569058749999993 Q 3.8874155841064453 1.5569058749999993 3.9274817091064453 1.5857137499999994 Q 3.967547834106445 1.6145216249999992 3.967547834106445 1.6648526249999993 Q 3.967547834106445 1.7019386249999993 3.942382334106445 1.7314087499999993 Q 3.917216834106445 1.7608788749999993 3.8754950841064453 1.7761106249999994 L 4.001322584106445 1.9595538749999992 L 4.045031084106445 1.9833948749999992 L 4.045031084106445 1.9939908749999993 L 3.949667084106445 1.9939908749999993 L 3.821190584106445 1.7933291249999992 L 3.759601334106445 1.7933291249999992 L 3.759601334106445 1.9562426249999993 L 3.809270084106445 1.9833948749999992 L 3.809270084106445 1.9939908749999993 L 3.6470188341064453 1.9939908749999993 M 3.8026475841064453 1.5933296249999993 L 3.759601334106445 1.5933296249999993 L 3.759601334106445 1.7569053749999992 L 3.806621084106445 1.7569053749999992 Q 3.848342834106445 1.7569053749999992 3.875826209106445 1.7333954999999994 Q 3.903309584106445 1.7098856249999992 3.903309584106445 1.6734618749999992 Q 3.903309584106445 1.6363758749999993 3.8761573341064453 1.6148527499999994 Q 3.8490050841064454 1.5933296249999993 3.8026475841064453 1.5933296249999993 M 4.1615877308349605 1.9939908749999993 L 4.1615877308349605 1.9833948749999992 L 4.227812730834961 1.9569048749999993 L 4.227812730834961 1.5933296249999993 L 4.119865980834961 1.5933296249999993 L 4.074832980834961 1.6906803749999992 L 4.064236980834961 1.6906803749999992 L 4.064236980834961 1.5569058749999993 L 4.450990980834961 1.5569058749999993 L 4.450990980834961 1.6906803749999992 L 4.440394980834961 1.6906803749999992 L 4.395361980834961 1.5933296249999993 L 4.287415230834961 1.5933296249999993 L 4.287415230834961 1.9569048749999993 L 4.35364023083496 1.9833948749999992 L 4.35364023083496 1.9939908749999993 L 4.1615877308349605 1.9939908749999993 M 4.52318366821289 1.9939908749999993 L 4.52318366821289 1.9833948749999992 L 4.576163668212891 1.9569048749999993 L 4.576163668212891 1.5939918749999993 L 4.52318366821289 1.5675018749999992 L 4.52318366821289 1.5569058749999993 L 4.84702391821289 1.5569058749999993 L 4.84702391821289 1.6708128749999993 L 4.83642791821289 1.6708128749999993 L 4.79536841821289 1.5933296249999993 L 4.63576616821289 1.5933296249999993 L 4.63576616821289 1.7502828749999992 L 4.74834866821289 1.7502828749999992 L 4.78146116821289 1.6953161249999993 L 4.7920571682128905 1.6953161249999993 L 4.7920571682128905 1.8403488749999992 L 4.78146116821289 1.8403488749999992 L 4.74834866821289 1.7867066249999992 L 4.63576616821289 1.7867066249999992 L 4.63576616821289 1.9575671249999993 L 4.81391141821289 1.9575671249999993 L 4.85497091821289 1.8734613749999993 L 4.86556691821289 1.8734613749999993 L 4.86556691821289 1.9939908749999993 L 4.52318366821289 1.9939908749999993 M 4.95429354345703 1.9939908749999993 L 4.95429354345703 1.9833948749999992 L 5.007273543457031 1.9569048749999993 L 5.007273543457031 1.5939918749999993 L 4.95429354345703 1.5675018749999992 L 4.95429354345703 1.5569058749999993 L 5.12515404345703 1.5569058749999993 Q 5.194690293457031 1.5569058749999993 5.234756418457031 1.5857137499999994 Q 5.274822543457031 1.6145216249999992 5.274822543457031 1.6648526249999993 Q 5.274822543457031 1.7019386249999993 5.249657043457031 1.7314087499999993 Q 5.224491543457031 1.7608788749999993 5.18276979345703 1.7761106249999994 L 5.308597293457031 1.9595538749999992 L 5.35230579345703 1.9833948749999992 L 5.35230579345703 1.9939908749999993 L 5.25694179345703 1.9939908749999993 L 5.1284652934570305 1.7933291249999992 L 5.066876043457031 1.7933291249999992 L 5.066876043457031 1.9562426249999993 L 5.116544793457031 1.9833948749999992 L 5.116544793457031 1.9939908749999993 L 4.95429354345703 1.9939908749999993 M 5.10992229345703 1.5933296249999993 L 5.066876043457031 1.5933296249999993 L 5.066876043457031 1.7569053749999992 L 5.11389579345703 1.7569053749999992 Q 5.155617543457031 1.7569053749999992 5.183100918457031 1.7333954999999994 Q 5.21058429345703 1.7098856249999992 5.21058429345703 1.6734618749999992 Q 5.21058429345703 1.6363758749999993 5.183432043457031 1.6148527499999994 Q 5.15627979345703 1.5933296249999993 5.10992229345703 1.5933296249999993 M 5.3887366574707025 2.129752124999999 L 5.3887366574707025 2.115844874999999 Q 5.416551157470702 2.1012753749999993 5.429133907470702 2.082732374999999 Q 5.441716657470702 2.0641893749999993 5.441716657470702 2.043659624999999 Q 5.441716657470702 2.0251166249999994 5.433438532470703 2.0128649999999992 Q 5.4251604074707025 2.0006133749999995 5.408604157470703 1.9920041249999993 L 5.386087657470703 1.9800836249999993 L 5.384100907470703 1.9734611249999994 L 5.403306157470703 1.9403486249999993 Q 5.407941907470702 1.9330638749999993 5.411253157470703 1.9294214999999992 Q 5.414564407470703 1.9257791249999994 5.419862407470703 1.9257791249999994 Q 5.4251604074707025 1.9257791249999994 5.4364186574707025 1.9317393749999994 Q 5.456948407470703 1.9436598749999994 5.468537782470703 1.9648518749999992 Q 5.480127157470703 1.9860438749999993 5.480127157470703 2.010547124999999 Q 5.480127157470703 2.045646374999999 5.458935157470703 2.0761098749999993 Q 5.4377431574707025 2.106573374999999 5.3887366574707025 2.129752124999999 M 5.721186157470702 1.9939908749999993 L 5.721186157470702 1.9833948749999992 L 5.774166157470702 1.9569048749999993 L 5.774166157470702 1.5939918749999993 L 5.721186157470702 1.5675018749999992 L 5.721186157470702 1.5569058749999993 L 5.915225407470702 1.5569058749999993 Q 5.988072907470702 1.5569058749999993 6.039728407470702 1.5827336249999993 Q 6.091383907470702 1.6085613749999994 6.118205032470702 1.6535943749999993 Q 6.145026157470702 1.6986273749999992 6.145026157470702 1.7555808749999993 Q 6.145026157470702 1.8072363749999993 6.127476532470702 1.8509448749999993 Q 6.109926907470702 1.8946533749999992 6.078138907470702 1.9264413749999993 Q 6.046350907470702 1.9582293749999993 6.003635782470702 1.9761101249999993 Q 5.960920657470702 1.9939908749999993 5.910589657470702 1.9939908749999993 L 5.721186157470702 1.9939908749999993 M 5.899993657470702 1.5933296249999993 L 5.833768657470702 1.5933296249999993 L 5.833768657470702 1.9575671249999993 L 5.909927407470702 1.9575671249999993 Q 5.962907407470702 1.9575671249999993 6.001649032470702 1.9353817499999992 Q 6.040390657470702 1.9131963749999992 6.061251532470702 1.8724679999999994 Q 6.082112407470702 1.8317396249999993 6.082112407470702 1.7761106249999994 Q 6.082112407470702 1.7211438749999992 6.060920407470702 1.6797532499999992 Q 6.039728407470702 1.6383626249999992 5.999000032470702 1.6158461249999994 Q 5.958271657470702 1.5933296249999993 5.899993657470702 1.5933296249999993 M 6.2337838256835925 1.9939908749999993 L 6.2337838256835925 1.9833948749999992 L 6.286763825683593 1.9569048749999993 L 6.286763825683593 1.5939918749999993 L 6.2337838256835925 1.5675018749999992 L 6.2337838256835925 1.5569058749999993 L 6.557624075683592 1.5569058749999993 L 6.557624075683592 1.6708128749999993 L 6.547028075683593 1.6708128749999993 L 6.5059685756835925 1.5933296249999993 L 6.346366325683593 1.5933296249999993 L 6.346366325683593 1.7502828749999992 L 6.458948825683593 1.7502828749999992 L 6.492061325683593 1.6953161249999993 L 6.502657325683593 1.6953161249999993 L 6.502657325683593 1.8403488749999992 L 6.492061325683593 1.8403488749999992 L 6.458948825683593 1.7867066249999992 L 6.346366325683593 1.7867066249999992 L 6.346366325683593 1.9575671249999993 L 6.524511575683593 1.9575671249999993 L 6.565571075683593 1.8734613749999993 L 6.576167075683593 1.8734613749999993 L 6.576167075683593 1.9939908749999993 L 6.2337838256835925 1.9939908749999993 M 6.664893700927733 1.9939908749999993 L 6.664893700927733 1.9833948749999992 L 6.717873700927734 1.9569048749999993 L 6.717873700927734 1.5939918749999993 L 6.664893700927733 1.5675018749999992 L 6.664893700927733 1.5569058749999993 L 6.832442950927733 1.5569058749999993 Q 6.8761514509277335 1.5569058749999993 6.910919575927733 1.5678329999999994 Q 6.945687700927733 1.5787601249999992 6.965555200927733 1.6002832499999993 Q 6.985422700927733 1.6218063749999994 6.985422700927733 1.6549188749999992 Q 6.985422700927733 1.6886936249999993 6.962906200927733 1.7168392499999992 Q 6.940389700927733 1.7449848749999992 6.898005700927733 1.7569053749999992 Q 6.956945950927733 1.7648523749999994 6.990058450927733 1.7936602499999994 Q 7.023170950927733 1.8224681249999992 7.023170950927733 1.8668388749999993 Q 7.023170950927733 1.9032626249999993 7.0003233259277335 1.9320704999999994 Q 6.977475700927733 1.9608783749999992 6.937740700927733 1.9774346249999992 Q 6.898005700927733 1.9939908749999993 6.847674700927733 1.9939908749999993 L 6.664893700927733 1.9939908749999993 M 6.8172112009277335 1.5933296249999993 L 6.777476200927733 1.5933296249999993 L 6.777476200927733 1.7502828749999992 L 6.821184700927733 1.7502828749999992 Q 6.868204450927733 1.7502828749999992 6.894694450927733 1.7300842499999993 Q 6.921184450927733 1.7098856249999992 6.921184450927733 1.6734618749999992 Q 6.921184450927733 1.5933296249999993 6.8172112009277335 1.5933296249999993 M 6.842376700927733 1.7867066249999992 L 6.777476200927733 1.7867066249999992 L 6.777476200927733 1.9575671249999993 L 6.847012450927733 1.9575671249999993 Q 6.899330200927733 1.9575671249999993 6.929131450927733 1.9337261249999993 Q 6.9589327009277335 1.9098851249999993 6.9589327009277335 1.8721368749999994 Q 6.9589327009277335 1.8271038749999993 6.9288003259277335 1.8069052499999994 Q 6.8986679509277335 1.7867066249999992 6.842376700927733 1.7867066249999992 M 7.311912274291991 2.0006133749999995 Q 7.262243524291991 2.0006133749999995 7.223501899291991 1.9820703749999993 Q 7.184760274291991 1.9635273749999993 7.162243774291991 1.9247857499999992 Q 7.1397272742919915 1.8860441249999993 7.1397272742919915 1.8244548749999994 L 7.1397272742919915 1.5939918749999993 L 7.086747274291991 1.5675018749999992 L 7.086747274291991 1.5569058749999993 L 7.252309774291991 1.5569058749999993 L 7.252309774291991 1.5675018749999992 L 7.199329774291991 1.5939918749999993 L 7.199329774291991 1.8145211249999993 Q 7.199329774291991 1.8694878749999992 7.216548274291991 1.9019381249999994 Q 7.233766774291991 1.9343883749999993 7.263236899291991 1.9482956249999992 Q 7.292707024291991 1.9622028749999993 7.329130774291991 1.9622028749999993 Q 7.358269774291991 1.9622028749999993 7.383104149291991 1.9496201249999994 Q 7.407938524291991 1.9370373749999992 7.422839149291991 1.9098851249999993 Q 7.437739774291991 1.8827328749999992 7.437739774291991 1.8376998749999993 L 7.437739774291991 1.5926673749999993 L 7.371514774291991 1.5675018749999992 L 7.371514774291991 1.5569058749999993 L 7.536415024291991 1.5569058749999993 L 7.536415024291991 1.5675018749999992 L 7.484097274291991 1.5933296249999993 L 7.484097274291991 1.8244548749999994 Q 7.484097274291991 1.8860441249999993 7.461580774291991 1.9247857499999992 Q 7.439064274291991 1.9635273749999993 7.400322649291991 1.9820703749999993 Q 7.361581024291991 2.0006133749999995 7.311912274291991 2.0006133749999995 M 7.839070711669921 2.0006133749999995 Q 7.7754947116699205 2.0006133749999995 7.72549483666992 1.9727988749999992 Q 7.67549496166992 1.9449843749999993 7.647018211669921 1.8969712499999993 Q 7.6185414616699205 1.8489581249999993 7.6185414616699205 1.7873688749999992 Q 7.6185414616699205 1.7363756249999993 7.63675333666992 1.6933293749999994 Q 7.6549652116699205 1.6502831249999992 7.68774658666992 1.6181639999999993 Q 7.72052796166992 1.5860448749999994 7.7629119616699205 1.5681641249999994 Q 7.805295961669921 1.5502833749999994 7.854302461669921 1.5502833749999994 Q 7.88873946166992 1.5502833749999994 7.913242711669921 1.5542568749999992 Q 7.93774596166992 1.5582303749999993 7.956951211669921 1.5655151249999992 Q 7.9761564616699205 1.5727998749999994 7.99536171166992 1.5820713749999993 L 7.998672961669921 1.6913426249999992 L 7.98807696166992 1.6913426249999992 L 7.94503071166992 1.6171706249999993 Q 7.9172162116699205 1.5979653749999994 7.89767983666992 1.5906806249999992 Q 7.878143461669921 1.5833958749999992 7.852977961669921 1.5833958749999992 Q 7.80198471166992 1.5833958749999992 7.76224971166992 1.6055812499999993 Q 7.722514711669921 1.6277666249999994 7.699998211669921 1.6665082499999992 Q 7.6774817116699205 1.7052498749999994 7.6774817116699205 1.7542563749999993 Q 7.6774817116699205 1.8204813749999993 7.70165383666992 1.8668388749999993 Q 7.72582596166992 1.9131963749999992 7.76688546166992 1.9376996249999994 Q 7.807944961669921 1.9622028749999993 7.8582759616699205 1.9622028749999993 Q 7.88013021166992 1.9622028749999993 7.900328836669921 1.9595538749999992 Q 7.920527461669921 1.9569048749999993 7.9423817116699205 1.9482956249999992 L 7.9423817116699205 1.8390243749999993 L 7.88344146166992 1.8125343749999994 L 7.88344146166992 1.8019383749999993 L 8.04767946166992 1.8019383749999993 L 8.04767946166992 1.8125343749999994 L 8.001984211669921 1.8410111249999992 L 8.001984211669921 1.9449843749999993 Q 7.97152071166992 1.9701498749999993 7.926818836669921 1.9853816249999994 Q 7.8821169616699205 2.0006133749999995 7.839070711669921 2.0006133749999995 M 8.288079768676758 1.9939908749999993 L 8.288079768676758 1.9833948749999992 L 8.341059768676757 1.9569048749999993 L 8.341059768676757 1.5939918749999993 L 8.288079768676758 1.5675018749999992 L 8.288079768676758 1.5569058749999993 L 8.605297518676759 1.5569058749999993 L 8.605297518676759 1.6708128749999993 L 8.594701518676757 1.6708128749999993 L 8.553642018676758 1.5933296249999993 L 8.400662268676758 1.5933296249999993 L 8.400662268676758 1.7502828749999992 L 8.506622268676757 1.7502828749999992 L 8.539734768676757 1.6953161249999993 L 8.550330768676758 1.6953161249999993 L 8.550330768676758 1.8403488749999992 L 8.539734768676757 1.8403488749999992 L 8.506622268676757 1.7867066249999992 L 8.400662268676758 1.7867066249999992 L 8.400662268676758 1.9569048749999993 L 8.460264768676758 1.9833948749999992 L 8.460264768676758 1.9939908749999993 L 8.288079768676758 1.9939908749999993 M 8.613235787841797 1.9939908749999993 L 8.613235787841797 1.9833948749999992 L 8.655619787841797 1.9615406249999994 L 8.825155787841796 1.5535946249999992 L 8.854957037841796 1.5535946249999992 L 9.021844037841795 1.9595538749999992 L 9.066214787841796 1.9833948749999992 L 9.066214787841796 1.9939908749999993 L 8.901976787841797 1.9939908749999993 L 8.901976787841797 1.9833948749999992 L 8.960254787841796 1.9608783749999992 L 8.910586037841796 1.8383621249999993 L 8.749659287841796 1.8383621249999993 L 8.700652787841797 1.9608783749999992 L 8.756281787841797 1.9833948749999992 L 8.756281787841797 1.9939908749999993 L 8.613235787841797 1.9939908749999993 M 8.764891037841796 1.8019383749999993 L 8.896016537841795 1.8019383749999993 L 8.830453787841796 1.6390248749999992 L 8.764891037841796 1.8019383749999993 M 9.262240787841797 2.0006133749999995 Q 9.221181287841796 2.0006133749999995 9.192704537841797 1.9929974999999993 Q 9.164227787841797 1.9853816249999994 9.133764287841796 1.9701498749999993 L 9.127141787841797 1.8615408749999993 L 9.137737787841797 1.8615408749999993 L 9.170188037841797 1.9317393749999994 Q 9.194029037841796 1.9516068749999993 9.216545537841796 1.9605472499999992 Q 9.239062037841796 1.9694876249999993 9.262240787841797 1.9694876249999993 Q 9.301313537841796 1.9694876249999993 9.323498912841798 1.9489578749999992 Q 9.345684287841797 1.9284281249999993 9.345684287841797 1.8933288749999992 Q 9.345684287841797 1.8641898749999992 9.332770412841796 1.8476336249999994 Q 9.319856537841797 1.8310773749999993 9.295684412841796 1.8181634999999994 Q 9.271512287841796 1.8052496249999992 9.238399787841796 1.7886933749999994 Q 9.207274037841797 1.7727993749999993 9.185419787841797 1.7575676249999992 Q 9.163565537841796 1.7423358749999993 9.152307287841797 1.7221372499999994 Q 9.141049037841796 1.7019386249999993 9.141049037841796 1.6714751249999993 Q 9.141049037841796 1.6489586249999992 9.151976162841796 1.6274354999999994 Q 9.162903287841797 1.6059123749999993 9.181777412841797 1.5883627499999993 Q 9.200651537841797 1.5708131249999993 9.224161412841797 1.5605482499999992 Q 9.247671287841797 1.5502833749999994 9.272836787841797 1.5502833749999994 Q 9.303300287841797 1.5502833749999994 9.329128037841796 1.5575681249999993 Q 9.354955787841797 1.5648528749999993 9.382108037841796 1.5780978749999992 L 9.388730537841797 1.6840578749999993 L 9.378134537841797 1.6840578749999993 L 9.347671037841797 1.6145216249999992 Q 9.324492287841796 1.5973031249999994 9.307273787841797 1.5896872499999992 Q 9.290055287841797 1.5820713749999993 9.267538787841797 1.5820713749999993 Q 9.238399787841796 1.5820713749999993 9.219525662841797 1.6019388749999992 Q 9.200651537841797 1.6218063749999994 9.200651537841797 1.6509453749999992 Q 9.200651537841797 1.6847201249999992 9.221181287841796 1.7035942499999992 Q 9.241711037841796 1.7224683749999992 9.285419537841797 1.7436603749999993 Q 9.325816787841797 1.7635278749999992 9.351644537841796 1.7804152499999992 Q 9.377472287841798 1.7973026249999993 9.390055037841798 1.8191568749999993 Q 9.402637787841797 1.8410111249999992 9.402637787841797 1.8747858749999993 Q 9.402637787841797 1.9059116249999992 9.389392787841796 1.9294214999999992 Q 9.376147787841797 1.9529313749999992 9.355286912841796 1.9688253749999993 Q 9.334426037841796 1.9847193749999992 9.309591662841797 1.9926663749999993 Q 9.284757287841797 2.0006133749999995 9.262240787841797 2.0006133749999995 M 9.56555516821289 1.9939908749999993 L 9.56555516821289 1.9833948749999992 L 9.63178016821289 1.9569048749999993 L 9.63178016821289 1.5933296249999993 L 9.52383341821289 1.5933296249999993 L 9.47880041821289 1.6906803749999992 L 9.46820441821289 1.6906803749999992 L 9.46820441821289 1.5569058749999993 L 9.85495841821289 1.5569058749999993 L 9.85495841821289 1.6906803749999992 L 9.84436241821289 1.6906803749999992 L 9.79932941821289 1.5933296249999993 L 9.69138266821289 1.5933296249999993 L 9.69138266821289 1.9569048749999993 L 9.75760766821289 1.9833948749999992 L 9.75760766821289 1.9939908749999993 L 9.56555516821289 1.9939908749999993 M 9.92715110559082 1.9939908749999993 L 9.92715110559082 1.9833948749999992 L 9.98013110559082 1.9569048749999993 L 9.98013110559082 1.5939918749999993 L 9.92715110559082 1.5675018749999992 L 9.92715110559082 1.5569058749999993 L 10.25099135559082 1.5569058749999993 L 10.25099135559082 1.6708128749999993 L 10.24039535559082 1.6708128749999993 L 10.199335855590821 1.5933296249999993 L 10.03973360559082 1.5933296249999993 L 10.03973360559082 1.7502828749999992 L 10.15231610559082 1.7502828749999992 L 10.18542860559082 1.6953161249999993 L 10.19602460559082 1.6953161249999993 L 10.19602460559082 1.8403488749999992 L 10.18542860559082 1.8403488749999992 L 10.15231610559082 1.7867066249999992 L 10.03973360559082 1.7867066249999992 L 10.03973360559082 1.9575671249999993 L 10.21787885559082 1.9575671249999993 L 10.25893835559082 1.8734613749999993 L 10.269534355590821 1.8734613749999993 L 10.269534355590821 1.9939908749999993 L 9.92715110559082 1.9939908749999993 M 10.358260980834961 1.9939908749999993 L 10.358260980834961 1.9833948749999992 L 10.411240980834961 1.9569048749999993 L 10.411240980834961 1.5939918749999993 L 10.358260980834961 1.5675018749999992 L 10.358260980834961 1.5569058749999993 L 10.529121480834961 1.5569058749999993 Q 10.598657730834962 1.5569058749999993 10.63872385583496 1.5857137499999994 Q 10.678789980834962 1.6145216249999992 10.678789980834962 1.6648526249999993 Q 10.678789980834962 1.7019386249999993 10.653624480834962 1.7314087499999993 Q 10.628458980834962 1.7608788749999993 10.586737230834961 1.7761106249999994 L 10.712564730834961 1.9595538749999992 L 10.756273230834962 1.9833948749999992 L 10.756273230834962 1.9939908749999993 L 10.660909230834962 1.9939908749999993 L 10.532432730834962 1.7933291249999992 L 10.470843480834962 1.7933291249999992 L 10.470843480834962 1.9562426249999993 L 10.520512230834962 1.9833948749999992 L 10.520512230834962 1.9939908749999993 L 10.358260980834961 1.9939908749999993 M 10.513889730834961 1.5933296249999993 L 10.470843480834962 1.5933296249999993 L 10.470843480834962 1.7569053749999992 L 10.517863230834962 1.7569053749999992 Q 10.55958498083496 1.7569053749999992 10.587068355834962 1.7333954999999994 Q 10.614551730834961 1.7098856249999992 10.614551730834961 1.6734618749999992 Q 10.614551730834961 1.6363758749999993 10.58739948083496 1.6148527499999994 Q 10.560247230834962 1.5933296249999993 10.513889730834961 1.5933296249999993" fill="#dce2e3" fill-rule="nonzero"></path></g></g><defs><clipPath id="SvgjsClipPath1546"><path d=" M -4.136430601567726 -0.6383366562053208 h 3.891430601567726 v 3.270664187410641 h -3.891430601567726 Z"></path></clipPath><clipPath id="SvgjsClipPath154490715615-053a-4a2f-a833-5f4de170f73e"><path d=" M -4.136430601567726 -0.6383366562053208 L -0.2450000000000001 -0.6383366562053208 L -0.2450000000000001 2.63232753120532 L -4.136430601567726 2.63232753120532 Z"></path></clipPath></defs></svg>